<svg width="16" height="20" viewBox="0 0 16 20" fill="none" xmlns="http://www.w3.org/2000/svg">
<path d="M5.45142 6.94616L5.44975 6.94699L5.44725 6.94866L5.45142 6.94616ZM13.7464 6.79033C13.6884 6.73439 13.6241 6.68545 13.5547 6.64449C13.4565 6.58668 13.3475 6.54961 13.2344 6.5356C13.1213 6.52159 13.0066 6.53092 12.8972 6.56302C12.7879 6.59512 12.6863 6.64931 12.5987 6.72223C12.5111 6.79516 12.4394 6.88527 12.3881 6.98699C12.1011 7.55276 11.7052 8.05628 11.2231 8.46866C11.297 8.05328 11.3344 7.63223 11.3347 7.21033C11.3363 5.92711 10.9979 4.66638 10.3538 3.55651C9.7097 2.44664 8.78302 1.52727 7.66808 0.891992C7.54522 0.822183 7.40662 0.784763 7.26532 0.783251C7.12402 0.781739 6.98465 0.816184 6.86032 0.883348C6.736 0.950512 6.63079 1.04819 6.55459 1.1672C6.4784 1.2862 6.43372 1.42263 6.42475 1.56366C6.37809 2.35374 6.17153 3.12613 5.81758 3.83403C5.46363 4.54194 4.96966 5.17062 4.36558 5.68199L4.17392 5.83783C3.54193 6.26303 2.98254 6.78724 2.51725 7.39033C1.79415 8.30125 1.29324 9.36814 1.05426 10.5064C0.815286 11.6446 0.84481 12.8228 1.14049 13.9477C1.43618 15.0725 1.98989 16.113 2.75771 16.9865C3.52552 17.8601 4.48633 18.5427 5.56392 18.9803C5.69043 19.0318 5.82767 19.0514 5.96354 19.0374C6.09941 19.0234 6.22976 18.9762 6.34311 18.9C6.45646 18.8238 6.54933 18.7209 6.61356 18.6003C6.67778 18.4797 6.71139 18.3453 6.71142 18.2087C6.71072 18.1204 6.69667 18.0327 6.66975 17.9487C6.4833 17.2479 6.4296 16.5184 6.51142 15.7978C7.30014 17.285 8.56604 18.4637 10.1056 19.1445C10.2934 19.2285 10.5057 19.2397 10.7014 19.1762C11.9176 18.7835 13.0133 18.0865 13.8843 17.1512C14.7552 16.2159 15.3726 15.0734 15.6777 13.8323C15.9828 12.5913 15.9655 11.2928 15.6275 10.0603C15.2895 8.82774 14.642 7.70212 13.7464 6.79033ZM10.4922 17.4828C9.76582 17.1147 9.125 16.5979 8.61144 15.9659C8.09788 15.3339 7.72308 14.6009 7.51142 13.8145C7.4467 13.5497 7.39663 13.2815 7.36142 13.0112C7.3377 12.839 7.26077 12.6786 7.14139 12.5523C7.022 12.4261 6.86613 12.3403 6.69558 12.307C6.64314 12.2968 6.58983 12.2918 6.53642 12.292C6.39 12.2918 6.24613 12.3303 6.11929 12.4034C5.99245 12.4766 5.88712 12.5819 5.81392 12.7087C5.12262 13.9014 4.77506 15.2622 4.80975 16.6403C4.20155 16.1676 3.69323 15.5788 3.31426 14.9081C2.9353 14.2375 2.69322 13.4983 2.60206 12.7334C2.5109 11.9684 2.57248 11.193 2.78322 10.4521C2.99397 9.71117 3.34968 9.01943 3.82975 8.41699C4.19426 7.94352 4.63399 7.53307 5.13142 7.20199C5.15318 7.18803 5.17406 7.17272 5.19392 7.15616C5.19392 7.15616 5.44058 6.95199 5.44892 6.94783C6.63658 5.9437 7.48139 4.59405 7.86558 3.08699C8.77344 3.92646 9.37872 5.04221 9.58742 6.26096C9.79612 7.47972 9.59657 8.73328 9.01975 9.82699C8.94341 9.97297 8.91206 10.1383 8.92964 10.3021C8.94723 10.4659 9.01296 10.6208 9.11855 10.7473C9.22413 10.8737 9.36482 10.966 9.52285 11.0126C9.68088 11.0591 9.84916 11.0577 10.0064 11.0087C11.2829 10.6083 12.406 9.8266 13.2247 8.76866C13.717 9.49552 14.0388 10.3241 14.1663 11.1927C14.2938 12.0612 14.2235 12.9473 13.9609 13.785C13.6982 14.6226 13.2499 15.3902 12.6493 16.0305C12.0487 16.6707 11.3114 17.1672 10.4922 17.4828Z" fill="white"/>
</svg>
