<svg width="23" height="22" viewBox="0 0 23 22" fill="none" xmlns="http://www.w3.org/2000/svg">
<circle cx="11.5" cy="11" r="11" fill="#E90000"/>
<path d="M9.832 5.8H12.808L12.312 13.112H10.328L9.832 5.8ZM11.32 17.128C10.8827 17.128 10.5147 16.9893 10.216 16.712C9.928 16.424 9.784 16.0773 9.784 15.672C9.784 15.2667 9.928 14.9307 10.216 14.664C10.504 14.3867 10.872 14.248 11.32 14.248C11.768 14.248 12.136 14.3867 12.424 14.664C12.712 14.9307 12.856 15.2667 12.856 15.672C12.856 16.0773 12.7067 16.424 12.408 16.712C12.12 16.9893 11.7573 17.128 11.32 17.128Z" fill="white"/>
</svg>
