<svg width="30" height="31" viewBox="0 0 30 31" fill="none" xmlns="http://www.w3.org/2000/svg">
<g clip-path="url(#clip0)">
<path d="M14.9996 1.55518C7.04661 1.55518 0.599609 8.00218 0.599609 15.9552C0.599609 23.9082 7.04661 30.3552 14.9996 30.3552C22.9526 30.3552 29.3996 23.9082 29.3996 15.9552C29.3996 8.00218 22.9526 1.55518 14.9996 1.55518ZM11.4746 21.9237H8.55861V12.5397H11.4746V21.9237ZM9.99861 11.3877C9.07761 11.3877 8.48211 10.7352 8.48211 9.92818C8.48211 9.10468 9.09561 8.47168 10.0361 8.47168C10.9766 8.47168 11.5526 9.10468 11.5706 9.92818C11.5706 10.7352 10.9766 11.3877 9.99861 11.3877ZM22.1246 21.9237H19.2086V16.7232C19.2086 15.5127 18.7856 14.6907 17.7311 14.6907C16.9256 14.6907 16.4471 15.2472 16.2356 15.7827C16.1576 15.9732 16.1381 16.2432 16.1381 16.5117V21.9222H13.2206V15.5322C13.2206 14.3607 13.1831 13.3812 13.1441 12.5382H15.6776L15.8111 13.8417H15.8696C16.2536 13.2297 17.1941 12.3267 18.7676 12.3267C20.6861 12.3267 22.1246 13.6122 22.1246 16.3752V21.9237Z" fill="#A615FC"/>
</g>
<defs>
<clipPath id="clip0">
<rect y="0.955078" width="30" height="30" fill="white"/>
</clipPath>
</defs>
</svg>
