<svg width="37" height="41" viewBox="0 0 37 41" fill="none" xmlns="http://www.w3.org/2000/svg">
<path d="M1.256 1.2H4.376V15.36H13.16V18H1.256V1.2ZM23.1665 18.24C21.4545 18.24 19.9105 17.872 18.5345 17.136C17.1585 16.384 16.0785 15.352 15.2945 14.04C14.5105 12.712 14.1185 11.232 14.1185 9.6C14.1185 7.968 14.5105 6.496 15.2945 5.184C16.0785 3.856 17.1585 2.824 18.5345 2.088C19.9105 1.336 21.4545 0.959999 23.1665 0.959999C24.8785 0.959999 26.4225 1.336 27.7985 2.088C29.1745 2.824 30.2545 3.848 31.0385 5.16C31.8225 6.472 32.2145 7.952 32.2145 9.6C32.2145 11.248 31.8225 12.728 31.0385 14.04C30.2545 15.352 29.1745 16.384 27.7985 17.136C26.4225 17.872 24.8785 18.24 23.1665 18.24ZM23.1665 15.504C24.2865 15.504 25.2945 15.256 26.1905 14.76C27.0865 14.248 27.7905 13.544 28.3025 12.648C28.8145 11.736 29.0705 10.72 29.0705 9.6C29.0705 8.48 28.8145 7.472 28.3025 6.576C27.7905 5.664 27.0865 4.96 26.1905 4.464C25.2945 3.952 24.2865 3.696 23.1665 3.696C22.0465 3.696 21.0385 3.952 20.1425 4.464C19.2465 4.96 18.5425 5.664 18.0305 6.576C17.5185 7.472 17.2625 8.48 17.2625 9.6C17.2625 10.72 17.5185 11.736 18.0305 12.648C18.5425 13.544 19.2465 14.248 20.1425 14.76C21.0385 15.256 22.0465 15.504 23.1665 15.504ZM12.728 31.408H15.68V38.104C14.816 38.792 13.808 39.32 12.656 39.688C11.504 40.056 10.32 40.24 9.104 40.24C7.392 40.24 5.848 39.872 4.472 39.136C3.096 38.384 2.016 37.352 1.232 36.04C0.448 34.728 0.0560001 33.248 0.0560001 31.6C0.0560001 29.952 0.448 28.472 1.232 27.16C2.016 25.848 3.096 24.824 4.472 24.088C5.864 23.336 7.424 22.96 9.152 22.96C10.56 22.96 11.84 23.192 12.992 23.656C14.144 24.12 15.112 24.8 15.896 25.696L13.928 27.616C12.648 26.336 11.104 25.696 9.296 25.696C8.112 25.696 7.056 25.944 6.128 26.44C5.216 26.936 4.496 27.632 3.968 28.528C3.456 29.424 3.2 30.448 3.2 31.6C3.2 32.72 3.456 33.728 3.968 34.624C4.496 35.52 5.216 36.224 6.128 36.736C7.056 37.248 8.104 37.504 9.272 37.504C10.584 37.504 11.736 37.216 12.728 36.64V31.408ZM27.6431 40.24C25.9311 40.24 24.3871 39.872 23.0111 39.136C21.6351 38.384 20.5551 37.352 19.7711 36.04C18.9871 34.712 18.5951 33.232 18.5951 31.6C18.5951 29.968 18.9871 28.496 19.7711 27.184C20.5551 25.856 21.6351 24.824 23.0111 24.088C24.3871 23.336 25.9311 22.96 27.6431 22.96C29.3551 22.96 30.8991 23.336 32.2751 24.088C33.6511 24.824 34.7311 25.848 35.5151 27.16C36.2991 28.472 36.6911 29.952 36.6911 31.6C36.6911 33.248 36.2991 34.728 35.5151 36.04C34.7311 37.352 33.6511 38.384 32.2751 39.136C30.8991 39.872 29.3551 40.24 27.6431 40.24ZM27.6431 37.504C28.7631 37.504 29.7711 37.256 30.6671 36.76C31.5631 36.248 32.2671 35.544 32.7791 34.648C33.2911 33.736 33.5471 32.72 33.5471 31.6C33.5471 30.48 33.2911 29.472 32.7791 28.576C32.2671 27.664 31.5631 26.96 30.6671 26.464C29.7711 25.952 28.7631 25.696 27.6431 25.696C26.5231 25.696 25.5151 25.952 24.6191 26.464C23.7231 26.96 23.0191 27.664 22.5071 28.576C21.9951 29.472 21.7391 30.48 21.7391 31.6C21.7391 32.72 21.9951 33.736 22.5071 34.648C23.0191 35.544 23.7231 36.248 24.6191 36.76C25.5151 37.256 26.5231 37.504 27.6431 37.504Z" fill="white"/>
</svg>
