<svg width="12" height="19" viewBox="0 0 12 19" fill="none" xmlns="http://www.w3.org/2000/svg">
<path d="M10.2056 0.204834H2.33057C1.40244 0.204834 0.643066 0.964209 0.643066 1.89233V16.5173C0.643066 17.4455 1.40244 18.2048 2.33057 18.2048H10.2056C11.1337 18.2048 11.8931 17.4455 11.8931 16.5173V1.89233C11.8931 0.964209 11.1337 0.204834 10.2056 0.204834ZM4.01807 1.04858H8.51807V1.61108H4.01807V1.04858ZM6.26807 17.0798C5.9697 17.0798 5.68355 16.9613 5.47257 16.7503C5.26159 16.5394 5.14307 16.2532 5.14307 15.9548C5.14307 15.6565 5.26159 15.3703 5.47257 15.1593C5.68355 14.9484 5.9697 14.8298 6.26807 14.8298C6.56643 14.8298 6.85258 14.9484 7.06356 15.1593C7.27454 15.3703 7.39307 15.6565 7.39307 15.9548C7.39307 16.2532 7.27454 16.5394 7.06356 16.7503C6.85258 16.9613 6.56643 17.0798 6.26807 17.0798ZM10.7681 13.7048H1.76807V2.45483H10.7681V13.7048Z" fill="#5E5E5E"/>
</svg>
