<svg width="1047" height="594" viewBox="0 0 1047 594" fill="none" xmlns="http://www.w3.org/2000/svg">
<path d="M925.538 3.71368H129.361C115.094 3.71368 103.525 15.1198 103.525 29.1858V561.529H107.219V25.5396C107.219 24.4157 107.307 23.3091 107.474 22.228C107.527 21.868 107.593 21.5115 107.667 21.1561C107.743 20.8043 107.821 20.4535 107.914 20.1051C108.007 19.7579 108.103 19.4106 108.213 19.0726C109.129 16.1731 110.642 13.5351 112.611 11.2953C112.84 11.0303 113.078 10.7745 113.324 10.5233C113.443 10.3971 113.566 10.2756 113.694 10.1506C114.82 9.044 116.066 8.0497 117.408 7.19893C117.858 6.9165 118.315 6.64795 118.786 6.39562C119.253 6.14444 119.732 5.90947 120.221 5.69302C120.221 5.69302 120.221 5.68839 120.226 5.68839C120.551 5.54486 120.881 5.41058 121.212 5.28094C121.212 5.28094 121.212 5.27632 121.217 5.27632C123.722 4.30401 126.456 3.76577 129.308 3.76577H925.485C929.288 3.76577 932.877 4.72071 936.007 6.39562C936.474 6.64795 936.936 6.9165 937.385 7.19893C937.979 7.57627 938.556 7.98488 939.115 8.40969C939.12 8.41432 939.12 8.41431 939.12 8.41431C939.397 8.63077 939.669 8.85301 939.934 9.07873C939.938 9.07873 939.938 9.07872 939.938 9.08335C940.339 9.42598 940.726 9.78249 941.101 10.1506C941.228 10.2767 941.352 10.3983 941.47 10.5233C941.717 10.7745 941.954 11.0314 942.184 11.2953C945.543 15.114 947.576 20.097 947.576 25.5396V561.529H951.318V27.5838C950.48 14.2644 939.26 3.71368 925.538 3.71368Z" fill="url(#paint0_linear)"/>
<path d="M103.473 25.5434C103.473 11.4774 115.041 0.0712891 129.308 0.0712891H925.485C939.752 0.0712891 951.316 11.4774 951.316 25.5434V27.5829C950.48 14.2623 939.259 3.71165 925.537 3.71165H129.362C115.094 3.71165 103.526 15.1177 103.526 29.1837L103.473 25.5434Z" fill="url(#paint1_linear)"/>
<path d="M947.575 546.624H107.219V561.53H947.575V546.624Z" fill="#EBEBEB"/>
<path d="M947.576 25.662V546.624H107.219V25.662C107.219 13.5869 117.128 3.76318 129.308 3.76318H925.485C937.667 3.76318 947.576 13.5858 947.576 25.662Z" fill="white"/>
<path d="M951.316 561.528V562.892H947.575V562.887H107.218V562.892H103.525V561.528H951.316Z" fill="url(#paint2_linear)"/>
<path d="M523.154 563.682H0.132812V579.506H523.154V563.682Z" fill="url(#paint3_linear)"/>
<path d="M1046.17 562.892H0.132812V563.682H1046.17V562.892Z" fill="url(#paint4_linear)"/>
<path d="M1046.18 563.682H523.154V579.506H1046.18V563.682Z" fill="url(#paint5_linear)"/>
<path d="M523.154 563.683H0.132812V578.573H523.154V563.683Z" fill="url(#paint6_linear)"/>
<path d="M1046.18 563.682H523.154V578.572H1046.18V563.682Z" fill="url(#paint7_linear)"/>
<path d="M597.596 562.896C597.596 566.239 596.246 569.271 594.043 571.462C591.851 573.654 588.829 575.014 585.473 575.014H460.821C454.132 575.014 448.709 569.583 448.709 562.896H597.596Z" fill="url(#paint8_linear)"/>
<mask id="mask0" mask-type="alpha" maskUnits="userSpaceOnUse" x="448" y="562" width="151" height="14">
<path d="M597.603 562.896C597.603 566.239 596.253 569.271 594.05 571.462C591.858 573.654 588.836 575.014 585.48 575.014H460.827C454.138 575.014 448.715 569.583 448.715 562.896H448.123V563.8C448.123 570.487 453.556 575.907 460.246 575.907H586.061C592.761 575.907 598.184 570.487 598.184 563.8V562.896H597.603Z" fill="url(#paint9_linear)"/>
</mask>
<g mask="url(#mask0)">
<path d="M597.603 562.896C597.603 566.239 596.253 569.271 594.05 571.462C591.858 573.654 588.836 575.014 585.48 575.014H460.827C454.138 575.014 448.715 569.583 448.715 562.896H448.123V563.8C448.123 570.487 453.556 575.907 460.246 575.907H586.061C592.761 575.907 598.184 570.487 598.184 563.8V562.896H597.603Z" fill="url(#paint10_linear)"/>
</g>
<path d="M0.132812 579.506C36.9102 588.75 75.2137 593.45 113.74 593.45H523.153H932.566C971.092 593.45 1009.4 588.749 1046.17 579.506H523.154H0.132812Z" fill="url(#paint11_linear)"/>
<defs>
<linearGradient id="paint0_linear" x1="424.556" y1="527.742" x2="421.58" y2="534.548" gradientUnits="userSpaceOnUse">
<stop stop-color="#EFEFEF"/>
<stop offset="0.3139" stop-color="#E7E7E7"/>
<stop offset="0.447" stop-color="#E2E2E2"/>
</linearGradient>
<linearGradient id="paint1_linear" x1="527.395" y1="29.1849" x2="527.395" y2="0.0714036" gradientUnits="userSpaceOnUse">
<stop stop-color="#EFEFEF"/>
<stop offset="0.3139" stop-color="#E7E7E7"/>
<stop offset="0.447" stop-color="#E2E2E2"/>
<stop offset="1" stop-color="#C5C5C5"/>
</linearGradient>
<linearGradient id="paint2_linear" x1="103.525" y1="562.21" x2="951.316" y2="562.21" gradientUnits="userSpaceOnUse">
<stop stop-color="#EFEFEF"/>
<stop offset="0.3139" stop-color="#E7E7E7"/>
<stop offset="0.447" stop-color="#E2E2E2"/>
<stop offset="1" stop-color="#C5C5C5"/>
</linearGradient>
<linearGradient id="paint3_linear" x1="0.132928" y1="571.594" x2="523.154" y2="571.594" gradientUnits="userSpaceOnUse">
<stop stop-color="#929292"/>
<stop offset="0.0139" stop-color="#C1C1C1"/>
<stop offset="0.0271" stop-color="#B2B2B2"/>
<stop offset="0.0487" stop-color="#9C9C9C"/>
<stop offset="0.0715" stop-color="#A4A4A4"/>
<stop offset="0.0909" stop-color="#AFAFAF"/>
<stop offset="1" stop-color="#CFCFCF"/>
</linearGradient>
<linearGradient id="paint4_linear" x1="0.132928" y1="563.287" x2="1046.17" y2="563.287" gradientUnits="userSpaceOnUse">
<stop stop-color="#666666"/>
<stop offset="0.0139" stop-color="#D5D5D5"/>
<stop offset="0.0234" stop-color="#D2D2D2"/>
<stop offset="0.0909" stop-color="#BCBCBC"/>
<stop offset="0.9939" stop-color="white"/>
</linearGradient>
<linearGradient id="paint5_linear" x1="523.154" y1="571.594" x2="1046.17" y2="571.594" gradientUnits="userSpaceOnUse">
<stop stop-color="#CFCFCF"/>
<stop offset="0.9091" stop-color="#AFAFAF"/>
<stop offset="0.9285" stop-color="#A4A4A4"/>
<stop offset="0.9513" stop-color="#9C9C9C"/>
<stop offset="0.9729" stop-color="#B2B2B2"/>
<stop offset="0.9861" stop-color="#C1C1C1"/>
<stop offset="1" stop-color="#929292"/>
</linearGradient>
<linearGradient id="paint6_linear" x1="0.132928" y1="571.127" x2="523.154" y2="571.127" gradientUnits="userSpaceOnUse">
<stop stop-color="#666666"/>
<stop offset="0.0139" stop-color="#D5D5D5"/>
<stop offset="0.0234" stop-color="#D2D2D2"/>
<stop offset="0.0909" stop-color="#BCBCBC"/>
<stop offset="0.9939" stop-color="white"/>
</linearGradient>
<linearGradient id="paint7_linear" x1="523.154" y1="571.126" x2="1046.17" y2="571.126" gradientUnits="userSpaceOnUse">
<stop stop-color="#F1F1F1"/>
<stop offset="0.9091" stop-color="#BCBCBC"/>
<stop offset="0.9133" stop-color="#B2B2B2"/>
<stop offset="0.9295" stop-color="#8E8E8E"/>
<stop offset="0.9428" stop-color="#787878"/>
<stop offset="0.9513" stop-color="#707070"/>
<stop offset="0.9603" stop-color="#868686"/>
<stop offset="0.9787" stop-color="#BDBDBD"/>
<stop offset="0.9861" stop-color="#D5D5D5"/>
<stop offset="1" stop-color="#666666"/>
</linearGradient>
<linearGradient id="paint8_linear" x1="448.709" y1="568.954" x2="597.596" y2="568.954" gradientUnits="userSpaceOnUse">
<stop stop-color="#9F9F9F"/>
<stop offset="0.0395" stop-color="#ACACAC"/>
<stop offset="0.514" stop-color="#E5E5E5"/>
<stop offset="0.9628" stop-color="#ACACAC"/>
<stop offset="1" stop-color="#9F9F9F"/>
</linearGradient>
<linearGradient id="paint9_linear" x1="448.124" y1="569.401" x2="598.184" y2="569.401" gradientUnits="userSpaceOnUse">
<stop offset="0.00041222" stop-color="#CCCCCC"/>
<stop offset="0.5247" stop-color="#B3B3B3"/>
<stop offset="0.7671" stop-color="#B5B5B5"/>
<stop offset="0.891" stop-color="#BDBDBD"/>
<stop offset="0.988" stop-color="#CACACA"/>
<stop offset="1" stop-color="#CCCCCC"/>
</linearGradient>
<linearGradient id="paint10_linear" x1="448.124" y1="569.401" x2="598.184" y2="569.401" gradientUnits="userSpaceOnUse">
<stop offset="0.00041222" stop-color="#F7F7F7"/>
<stop offset="0.5247" stop-color="#F8F8F8"/>
<stop offset="1" stop-color="#F7F7F7"/>
</linearGradient>
<linearGradient id="paint11_linear" x1="523.154" y1="593.451" x2="523.154" y2="579.506" gradientUnits="userSpaceOnUse">
<stop stop-color="#575757"/>
<stop offset="0.7389" stop-color="#B9B9B9"/>
<stop offset="0.8472" stop-color="#B6B6B6"/>
<stop offset="0.9363" stop-color="#ACACAC"/>
<stop offset="1" stop-color="#9F9F9F"/>
</linearGradient>
</defs>
</svg>
