<svg width="16" height="16" viewBox="0 0 16 16" fill="none" xmlns="http://www.w3.org/2000/svg">
<path d="M15.3256 5.68493V5.64743C14.7971 4.2046 13.8382 2.95889 12.5787 2.07883C11.3191 1.19876 9.81962 0.726807 8.28306 0.726807C6.7465 0.726807 5.24701 1.19876 3.98744 2.07883C2.72787 2.95889 1.76901 4.2046 1.24056 5.64743V5.68493C0.650404 7.3131 0.650404 9.09676 1.24056 10.7249V10.7624C1.76901 12.2053 2.72787 13.451 3.98744 14.331C5.24701 15.2111 6.7465 15.6831 8.28306 15.6831C9.81962 15.6831 11.3191 15.2111 12.5787 14.331C13.8382 13.451 14.7971 12.2053 15.3256 10.7624V10.7249C15.9157 9.09676 15.9157 7.3131 15.3256 5.68493ZM2.46306 9.70493C2.20298 8.72184 2.20298 7.68802 2.46306 6.70493H3.85806C3.73808 7.70133 3.73808 8.70853 3.85806 9.70493H2.46306ZM3.07806 11.2049H4.12806C4.3041 11.8738 4.55572 12.5205 4.87806 13.1324C4.14253 12.6314 3.52768 11.973 3.07806 11.2049ZM4.12806 5.20493H3.07806C3.52121 4.43924 4.1282 3.78103 4.85556 3.27743C4.54098 3.89036 4.29692 4.53699 4.12806 5.20493ZM7.51806 13.9799C6.59688 13.3039 5.94992 12.3189 5.69556 11.2049H7.51806V13.9799ZM7.51806 9.70493H5.37306C5.2331 8.70983 5.2331 7.70003 5.37306 6.70493H7.51806V9.70493ZM7.51806 5.20493H5.69556C5.94992 4.091 6.59688 3.10592 7.51806 2.42993V5.20493ZM13.4581 5.20493H12.4081C12.232 4.53605 11.9804 3.88938 11.6581 3.27743C12.3936 3.77848 13.0084 4.43688 13.4581 5.20493ZM9.01806 2.42993C9.93924 3.10592 10.5862 4.091 10.8406 5.20493H9.01806V2.42993ZM9.01806 13.9799V11.2049H10.8406C10.5862 12.3189 9.93924 13.3039 9.01806 13.9799ZM11.1631 9.70493H9.01806V6.70493H11.1631C11.303 7.70003 11.303 8.70983 11.1631 9.70493ZM11.6806 13.1324C12.0029 12.5205 12.2545 11.8738 12.4306 11.2049H13.4806C13.0309 11.973 12.4161 12.6314 11.6806 13.1324ZM14.0731 9.70493H12.6781C12.7391 9.20727 12.7691 8.70631 12.7681 8.20493C12.7689 7.70355 12.7388 7.20261 12.6781 6.70493H14.0731C14.3331 7.68802 14.3331 8.72184 14.0731 9.70493Z" fill="#5E5E5E"/>
</svg>
