<svg width="18" height="18" viewBox="0 0 18 18" fill="none" xmlns="http://www.w3.org/2000/svg">
<path d="M7.58057 1.32983V3.57983L6.45557 4.14233L4.76807 2.45483L2.51807 4.70483L4.20557 6.39233L3.64307 7.51733H1.39307V10.8923H3.64307L4.20557 12.0173L2.51807 13.7048L4.76807 15.9548L6.45557 14.2673L7.58057 14.8298V17.0798H10.9556V14.8298L12.0806 14.2673L13.7681 15.9548L16.0181 13.7048L14.3306 12.0173L14.8931 10.8923H17.1431V7.51733H14.8931L14.3306 6.39233L16.0181 4.70483L13.7681 2.45483L12.0806 4.14233L10.9556 3.57983V1.32983H7.58057Z" stroke="#5E5E5E" stroke-width="1.375" stroke-linecap="round" stroke-linejoin="round"/>
<path d="M9.26807 11.4548C10.5107 11.4548 11.5181 10.4475 11.5181 9.20483C11.5181 7.96219 10.5107 6.95483 9.26807 6.95483C8.02543 6.95483 7.01807 7.96219 7.01807 9.20483C7.01807 10.4475 8.02543 11.4548 9.26807 11.4548Z" stroke="#5E5E5E" stroke-width="1.375" stroke-linecap="round" stroke-linejoin="round"/>
</svg>
