<svg width="19" height="14" viewBox="0 0 19 14" fill="none" xmlns="http://www.w3.org/2000/svg">
<path d="M15.2681 11.7048V10.9548C16.0931 10.9548 16.7606 10.2798 16.7606 9.45483L16.7681 1.95483C16.7681 1.12983 16.0931 0.454834 15.2681 0.454834H3.26807C2.44307 0.454834 1.76807 1.12983 1.76807 1.95483V9.45483C1.76807 10.2798 2.44307 10.9548 3.26807 10.9548V11.7048H1.01807C0.605566 11.7048 0.268066 12.0423 0.268066 12.4548C0.268066 12.8673 0.605566 13.2048 1.01807 13.2048H17.5181C17.9306 13.2048 18.2681 12.8673 18.2681 12.4548C18.2681 12.0423 17.9306 11.7048 17.5181 11.7048H15.2681ZM4.01807 1.95483H14.5181C14.9306 1.95483 15.2681 2.29233 15.2681 2.70483V8.70483C15.2681 9.11733 14.9306 9.45483 14.5181 9.45483H4.01807C3.60557 9.45483 3.26807 9.11733 3.26807 8.70483V2.70483C3.26807 2.29233 3.60557 1.95483 4.01807 1.95483Z" fill="#5E5E5E"/>
</svg>
