<svg width="60" height="65" viewBox="0 0 60 65" fill="none" xmlns="http://www.w3.org/2000/svg">
<mask id="path-1-outside-1" maskUnits="userSpaceOnUse" x="-0.0234375" y="-0.928711" width="60" height="66" fill="black">
<rect fill="white" x="-0.0234375" y="-0.928711" width="60" height="66"/>
<path d="M39.7059 47.3535L33.7287 44.7918C33.7233 44.7895 33.7181 44.7872 33.7126 44.785L29.5843 43.0157C29.5846 42.991 29.5866 42.9661 29.5866 42.9415V38.921C30.0797 38.4837 30.5267 38.0012 30.9242 37.4783C31.2753 37.6145 31.6563 37.6898 32.0548 37.6898C33.7857 37.6898 35.1938 36.2816 35.1938 34.5508C35.1938 32.4938 33.6926 30.8408 32.9889 30.179L32.9927 23.5513C32.9927 21.4755 32.3683 19.48 31.1872 17.7803C30.0337 16.1208 28.4332 14.8553 26.5584 14.121C26.1923 13.9775 25.7759 14.0777 25.5151 14.3718L24.1064 15.9597C23.2866 16.8687 22.1133 17.3901 20.8877 17.3901H18.1177C15.1553 17.3901 12.7452 19.8002 12.7452 22.7626V31.3513C12.7452 34.2673 13.9812 37.0013 16.1502 38.923V42.9412C16.1502 42.9787 16.1531 43.0165 16.1537 43.054L12.0288 44.8472L12.0268 44.8481L6.16681 47.3956C3.01381 48.7213 0.976562 51.7887 0.976562 55.21V63.1337C0.976562 63.6516 1.39631 64.0712 1.91406 64.0712C2.43181 64.0712 2.85156 63.6516 2.85156 63.1337V55.21C2.85156 52.5455 4.43819 50.1566 6.90406 49.1196L11.8619 46.9642C12.4447 48.3647 13.2984 49.6566 14.3657 50.7438C14.5493 50.9308 14.7919 51.0246 15.0348 51.0246C15.2718 51.0246 15.5089 50.9352 15.6914 50.7562C16.0609 50.3936 16.0664 49.8 15.7038 49.4305C14.7967 48.5063 14.0732 47.4073 13.5819 46.2166L16.4612 44.9648C17.3263 47.711 19.8963 49.66 22.8689 49.66C25.8619 49.66 28.4367 47.6947 29.2877 44.9282L32.1732 46.1648C31.4891 47.8476 30.3403 49.3447 28.8777 50.44C27.1324 51.747 25.0541 52.4377 22.8671 52.4377C21.2916 52.4377 19.7836 52.0831 18.3851 51.3835C17.9219 51.1521 17.3589 51.3396 17.1272 51.8027C16.8956 52.2657 17.0832 52.8288 17.5463 53.0606C19.2077 53.8915 20.9978 54.3128 22.8671 54.3128C25.4624 54.3128 27.9296 53.4926 30.0017 51.9408C31.7261 50.6495 33.0824 48.8861 33.8962 46.9032L38.9571 49.0722C41.3434 50.1285 42.8853 52.498 42.8853 55.1086V63.1336C42.8853 63.6515 43.3051 64.0711 43.8228 64.0711C44.3406 64.0711 44.7603 63.6515 44.7603 63.1336V55.1086C44.7603 51.7567 42.7803 48.7145 39.7059 47.3535ZM33.3189 34.5507C33.3189 35.2477 32.7519 35.8147 32.0549 35.8147C31.3579 35.8147 30.7909 35.2477 30.7909 34.5507C30.7909 33.573 31.4823 32.5628 32.0644 31.9095C32.6047 32.4981 33.3189 33.4791 33.3189 34.5507ZM14.6203 31.3513V28.6608C15.0439 28.5772 15.4537 28.4343 15.8319 28.2372C16.4043 27.9405 16.8997 27.5301 17.3047 27.0175C17.6257 26.6112 17.5566 26.0216 17.1503 25.7007C16.7441 25.3797 16.1546 25.4488 15.8336 25.8551C15.5944 26.1577 15.3036 26.3992 14.9671 26.5737C14.8548 26.6322 14.7388 26.6812 14.6204 26.7227V22.7626C14.6204 20.834 16.1894 19.2651 18.1179 19.2651H20.8879C22.6436 19.2651 24.3243 18.518 25.5043 17.2097L26.4666 16.125C29.3127 17.4983 31.1179 20.3476 31.1179 23.5513V25.4552C29.9479 25.8883 28.7166 26.1101 27.4504 26.1101C24.6932 26.1101 22.0806 25.0553 20.0936 23.1401C19.7207 22.781 19.1273 22.7921 18.7679 23.1645C18.4086 23.5372 18.4196 24.1307 18.7923 24.4901C21.1306 26.7437 24.2054 27.985 27.4504 27.985C28.7052 27.985 29.9327 27.8015 31.1124 27.4386C31.1161 27.5045 31.1141 30.196 31.1141 30.196C30.4191 30.8722 28.9159 32.5642 28.9159 34.5507C28.9159 35.2026 29.1158 35.8086 29.4573 36.311C29.0533 36.8478 28.5849 37.3335 28.0583 37.7597C26.5969 38.9456 24.7532 39.5988 22.8666 39.5988C20.9807 39.5988 19.1382 38.9465 17.6778 37.7616C15.7348 36.1878 14.6203 33.8513 14.6203 31.3513ZM22.8691 47.7851C20.4253 47.7851 18.3587 45.959 18.0619 43.5362C18.0376 43.3396 18.0253 43.1393 18.0253 42.9413V40.2385C19.5016 41.0416 21.1694 41.4738 22.8666 41.4738C24.5648 41.4738 26.2342 41.0408 27.7116 40.2366V42.9413C27.7116 43.1296 27.7003 43.32 27.6778 43.5095C27.3947 45.947 25.3274 47.7851 22.8691 47.7851Z"/>
<path d="M10.2681 56.8343C9.75031 56.8343 9.33056 57.2539 9.33056 57.7718V63.1338C9.33056 63.6516 9.75031 64.0713 10.2681 64.0713C10.7858 64.0713 11.2056 63.6516 11.2056 63.1338V57.7718C11.2056 57.254 10.7858 56.8343 10.2681 56.8343Z"/>
<path d="M35.4938 56.8343C34.9761 56.8343 34.5563 57.2539 34.5563 57.7718V63.1338C34.5563 63.6516 34.9761 64.0713 35.4938 64.0713C36.0116 64.0713 36.4313 63.6516 36.4313 63.1338V57.7718C36.4313 57.254 36.0117 56.8343 35.4938 56.8343Z"/>
<path d="M53.7718 2.53879C53.3539 2.23291 52.7674 2.32366 52.4615 2.74154C52.1558 3.15941 52.2465 3.74591 52.6644 4.05166C55.4733 6.10741 57.1502 9.40991 57.1502 12.8857C57.1502 18.9177 52.2428 23.8252 46.2107 23.8252C45.684 23.8252 45.1512 23.7867 44.6272 23.7107C44.3132 23.6654 43.9982 23.7813 43.7889 24.0193C43.0719 24.8342 42.2642 25.561 41.388 26.1802C40.2833 26.9607 39.0658 27.5753 37.7693 28.007C37.7332 28.0189 37.6492 28.0468 37.5775 27.9453C37.5102 27.8495 37.5597 27.7864 37.5834 27.756C38.4467 26.6557 39.1355 25.4432 39.631 24.152C39.8094 23.6872 39.9659 23.1995 40.0962 22.7027C40.1937 22.3307 40.0542 21.9369 39.7442 21.7093C36.9433 19.6529 35.2712 16.3543 35.2712 12.8857C35.2713 6.85379 40.1787 1.94629 46.2107 1.94629C47.3904 1.94629 48.5503 2.13266 49.6583 2.50041C50.1497 2.66391 50.6803 2.39741 50.8433 1.90591C51.0063 1.41441 50.7402 0.883914 50.2488 0.720914C48.9502 0.289789 47.5915 0.0712891 46.2107 0.0712891C39.1448 0.0712891 33.3962 5.81979 33.3962 12.8858C33.3962 16.7284 35.1478 20.3928 38.1124 22.8162C38.0409 23.0424 37.9635 23.2643 37.8807 23.4803C37.4522 24.5967 36.8559 25.6459 36.1083 26.5989C35.5497 27.3109 35.5242 28.2859 36.0447 29.025C36.4367 29.5815 37.0578 29.8928 37.7078 29.8927C37.925 29.8927 38.1455 29.8579 38.3618 29.7859C39.8328 29.296 41.215 28.598 42.47 27.7113C43.3304 27.1034 44.1324 26.4043 44.8594 25.6289C45.309 25.6762 45.7617 25.7 46.2107 25.7C53.2765 25.7 59.0252 19.9515 59.0252 12.8855C59.0252 8.81429 57.0613 4.94629 53.7718 2.53879Z"/>
<path d="M46.2108 20.6917C46.7286 20.6917 47.1483 20.2719 47.1483 19.7542C47.1483 19.2364 46.7286 18.8167 46.2108 18.8167C45.6931 18.8167 45.2733 19.2364 45.2733 19.7542C45.2733 20.2719 45.6931 20.6917 46.2108 20.6917Z"/>
<path d="M50.5205 9.41792C50.404 7.17204 48.5501 5.37742 46.3 5.33204C46.2704 5.33142 46.2411 5.33104 46.2116 5.33104C44.0646 5.33104 42.2354 6.91367 41.9379 9.04542C41.9102 9.24317 41.8962 9.44529 41.8962 9.64617C41.8962 10.164 42.316 10.5837 42.8337 10.5837C43.3515 10.5837 43.7712 10.164 43.7712 9.64617C43.7712 9.53179 43.7791 9.41679 43.7949 9.30467C43.9652 8.08367 45.0214 7.18567 46.2621 7.20667C47.5341 7.23229 48.5821 8.24629 48.6479 9.51517C48.683 10.1924 48.446 10.8354 47.9806 11.3254C47.5149 11.816 46.8865 12.0862 46.2112 12.0862C45.6935 12.0862 45.2737 12.5058 45.2737 13.0237V16.5555C45.2737 17.0734 45.6935 17.493 46.2112 17.493C46.729 17.493 47.1487 17.0734 47.1487 16.5555V13.8569C47.979 13.6708 48.7476 13.2408 49.3404 12.6165C50.1635 11.7498 50.5825 10.6139 50.5205 9.41792Z"/>
</mask>
<path d="M39.7059 47.3535L33.7287 44.7918C33.7233 44.7895 33.7181 44.7872 33.7126 44.785L29.5843 43.0157C29.5846 42.991 29.5866 42.9661 29.5866 42.9415V38.921C30.0797 38.4837 30.5267 38.0012 30.9242 37.4783C31.2753 37.6145 31.6563 37.6898 32.0548 37.6898C33.7857 37.6898 35.1938 36.2816 35.1938 34.5508C35.1938 32.4938 33.6926 30.8408 32.9889 30.179L32.9927 23.5513C32.9927 21.4755 32.3683 19.48 31.1872 17.7803C30.0337 16.1208 28.4332 14.8553 26.5584 14.121C26.1923 13.9775 25.7759 14.0777 25.5151 14.3718L24.1064 15.9597C23.2866 16.8687 22.1133 17.3901 20.8877 17.3901H18.1177C15.1553 17.3901 12.7452 19.8002 12.7452 22.7626V31.3513C12.7452 34.2673 13.9812 37.0013 16.1502 38.923V42.9412C16.1502 42.9787 16.1531 43.0165 16.1537 43.054L12.0288 44.8472L12.0268 44.8481L6.16681 47.3956C3.01381 48.7213 0.976562 51.7887 0.976562 55.21V63.1337C0.976562 63.6516 1.39631 64.0712 1.91406 64.0712C2.43181 64.0712 2.85156 63.6516 2.85156 63.1337V55.21C2.85156 52.5455 4.43819 50.1566 6.90406 49.1196L11.8619 46.9642C12.4447 48.3647 13.2984 49.6566 14.3657 50.7438C14.5493 50.9308 14.7919 51.0246 15.0348 51.0246C15.2718 51.0246 15.5089 50.9352 15.6914 50.7562C16.0609 50.3936 16.0664 49.8 15.7038 49.4305C14.7967 48.5063 14.0732 47.4073 13.5819 46.2166L16.4612 44.9648C17.3263 47.711 19.8963 49.66 22.8689 49.66C25.8619 49.66 28.4367 47.6947 29.2877 44.9282L32.1732 46.1648C31.4891 47.8476 30.3403 49.3447 28.8777 50.44C27.1324 51.747 25.0541 52.4377 22.8671 52.4377C21.2916 52.4377 19.7836 52.0831 18.3851 51.3835C17.9219 51.1521 17.3589 51.3396 17.1272 51.8027C16.8956 52.2657 17.0832 52.8288 17.5463 53.0606C19.2077 53.8915 20.9978 54.3128 22.8671 54.3128C25.4624 54.3128 27.9296 53.4926 30.0017 51.9408C31.7261 50.6495 33.0824 48.8861 33.8962 46.9032L38.9571 49.0722C41.3434 50.1285 42.8853 52.498 42.8853 55.1086V63.1336C42.8853 63.6515 43.3051 64.0711 43.8228 64.0711C44.3406 64.0711 44.7603 63.6515 44.7603 63.1336V55.1086C44.7603 51.7567 42.7803 48.7145 39.7059 47.3535ZM33.3189 34.5507C33.3189 35.2477 32.7519 35.8147 32.0549 35.8147C31.3579 35.8147 30.7909 35.2477 30.7909 34.5507C30.7909 33.573 31.4823 32.5628 32.0644 31.9095C32.6047 32.4981 33.3189 33.4791 33.3189 34.5507ZM14.6203 31.3513V28.6608C15.0439 28.5772 15.4537 28.4343 15.8319 28.2372C16.4043 27.9405 16.8997 27.5301 17.3047 27.0175C17.6257 26.6112 17.5566 26.0216 17.1503 25.7007C16.7441 25.3797 16.1546 25.4488 15.8336 25.8551C15.5944 26.1577 15.3036 26.3992 14.9671 26.5737C14.8548 26.6322 14.7388 26.6812 14.6204 26.7227V22.7626C14.6204 20.834 16.1894 19.2651 18.1179 19.2651H20.8879C22.6436 19.2651 24.3243 18.518 25.5043 17.2097L26.4666 16.125C29.3127 17.4983 31.1179 20.3476 31.1179 23.5513V25.4552C29.9479 25.8883 28.7166 26.1101 27.4504 26.1101C24.6932 26.1101 22.0806 25.0553 20.0936 23.1401C19.7207 22.781 19.1273 22.7921 18.7679 23.1645C18.4086 23.5372 18.4196 24.1307 18.7923 24.4901C21.1306 26.7437 24.2054 27.985 27.4504 27.985C28.7052 27.985 29.9327 27.8015 31.1124 27.4386C31.1161 27.5045 31.1141 30.196 31.1141 30.196C30.4191 30.8722 28.9159 32.5642 28.9159 34.5507C28.9159 35.2026 29.1158 35.8086 29.4573 36.311C29.0533 36.8478 28.5849 37.3335 28.0583 37.7597C26.5969 38.9456 24.7532 39.5988 22.8666 39.5988C20.9807 39.5988 19.1382 38.9465 17.6778 37.7616C15.7348 36.1878 14.6203 33.8513 14.6203 31.3513ZM22.8691 47.7851C20.4253 47.7851 18.3587 45.959 18.0619 43.5362C18.0376 43.3396 18.0253 43.1393 18.0253 42.9413V40.2385C19.5016 41.0416 21.1694 41.4738 22.8666 41.4738C24.5648 41.4738 26.2342 41.0408 27.7116 40.2366V42.9413C27.7116 43.1296 27.7003 43.32 27.6778 43.5095C27.3947 45.947 25.3274 47.7851 22.8691 47.7851Z" fill="url(#paint0_linear)"/>
<path d="M10.2681 56.8343C9.75031 56.8343 9.33056 57.2539 9.33056 57.7718V63.1338C9.33056 63.6516 9.75031 64.0713 10.2681 64.0713C10.7858 64.0713 11.2056 63.6516 11.2056 63.1338V57.7718C11.2056 57.254 10.7858 56.8343 10.2681 56.8343Z" fill="url(#paint1_linear)"/>
<path d="M35.4938 56.8343C34.9761 56.8343 34.5563 57.2539 34.5563 57.7718V63.1338C34.5563 63.6516 34.9761 64.0713 35.4938 64.0713C36.0116 64.0713 36.4313 63.6516 36.4313 63.1338V57.7718C36.4313 57.254 36.0117 56.8343 35.4938 56.8343Z" fill="url(#paint2_linear)"/>
<path d="M53.7718 2.53879C53.3539 2.23291 52.7674 2.32366 52.4615 2.74154C52.1558 3.15941 52.2465 3.74591 52.6644 4.05166C55.4733 6.10741 57.1502 9.40991 57.1502 12.8857C57.1502 18.9177 52.2428 23.8252 46.2107 23.8252C45.684 23.8252 45.1512 23.7867 44.6272 23.7107C44.3132 23.6654 43.9982 23.7813 43.7889 24.0193C43.0719 24.8342 42.2642 25.561 41.388 26.1802C40.2833 26.9607 39.0658 27.5753 37.7693 28.007C37.7332 28.0189 37.6492 28.0468 37.5775 27.9453C37.5102 27.8495 37.5597 27.7864 37.5834 27.756C38.4467 26.6557 39.1355 25.4432 39.631 24.152C39.8094 23.6872 39.9659 23.1995 40.0962 22.7027C40.1937 22.3307 40.0542 21.9369 39.7442 21.7093C36.9433 19.6529 35.2712 16.3543 35.2712 12.8857C35.2713 6.85379 40.1787 1.94629 46.2107 1.94629C47.3904 1.94629 48.5503 2.13266 49.6583 2.50041C50.1497 2.66391 50.6803 2.39741 50.8433 1.90591C51.0063 1.41441 50.7402 0.883914 50.2488 0.720914C48.9502 0.289789 47.5915 0.0712891 46.2107 0.0712891C39.1448 0.0712891 33.3962 5.81979 33.3962 12.8858C33.3962 16.7284 35.1478 20.3928 38.1124 22.8162C38.0409 23.0424 37.9635 23.2643 37.8807 23.4803C37.4522 24.5967 36.8559 25.6459 36.1083 26.5989C35.5497 27.3109 35.5242 28.2859 36.0447 29.025C36.4367 29.5815 37.0578 29.8928 37.7078 29.8927C37.925 29.8927 38.1455 29.8579 38.3618 29.7859C39.8328 29.296 41.215 28.598 42.47 27.7113C43.3304 27.1034 44.1324 26.4043 44.8594 25.6289C45.309 25.6762 45.7617 25.7 46.2107 25.7C53.2765 25.7 59.0252 19.9515 59.0252 12.8855C59.0252 8.81429 57.0613 4.94629 53.7718 2.53879Z" fill="url(#paint3_linear)"/>
<path d="M46.2108 20.6917C46.7286 20.6917 47.1483 20.2719 47.1483 19.7542C47.1483 19.2364 46.7286 18.8167 46.2108 18.8167C45.6931 18.8167 45.2733 19.2364 45.2733 19.7542C45.2733 20.2719 45.6931 20.6917 46.2108 20.6917Z" fill="url(#paint4_linear)"/>
<path d="M50.5205 9.41792C50.404 7.17204 48.5501 5.37742 46.3 5.33204C46.2704 5.33142 46.2411 5.33104 46.2116 5.33104C44.0646 5.33104 42.2354 6.91367 41.9379 9.04542C41.9102 9.24317 41.8962 9.44529 41.8962 9.64617C41.8962 10.164 42.316 10.5837 42.8337 10.5837C43.3515 10.5837 43.7712 10.164 43.7712 9.64617C43.7712 9.53179 43.7791 9.41679 43.7949 9.30467C43.9652 8.08367 45.0214 7.18567 46.2621 7.20667C47.5341 7.23229 48.5821 8.24629 48.6479 9.51517C48.683 10.1924 48.446 10.8354 47.9806 11.3254C47.5149 11.816 46.8865 12.0862 46.2112 12.0862C45.6935 12.0862 45.2737 12.5058 45.2737 13.0237V16.5555C45.2737 17.0734 45.6935 17.493 46.2112 17.493C46.729 17.493 47.1487 17.0734 47.1487 16.5555V13.8569C47.979 13.6708 48.7476 13.2408 49.3404 12.6165C50.1635 11.7498 50.5825 10.6139 50.5205 9.41792Z" fill="url(#paint5_linear)"/>
<path d="M39.7059 47.3535L33.7287 44.7918C33.7233 44.7895 33.7181 44.7872 33.7126 44.785L29.5843 43.0157C29.5846 42.991 29.5866 42.9661 29.5866 42.9415V38.921C30.0797 38.4837 30.5267 38.0012 30.9242 37.4783C31.2753 37.6145 31.6563 37.6898 32.0548 37.6898C33.7857 37.6898 35.1938 36.2816 35.1938 34.5508C35.1938 32.4938 33.6926 30.8408 32.9889 30.179L32.9927 23.5513C32.9927 21.4755 32.3683 19.48 31.1872 17.7803C30.0337 16.1208 28.4332 14.8553 26.5584 14.121C26.1923 13.9775 25.7759 14.0777 25.5151 14.3718L24.1064 15.9597C23.2866 16.8687 22.1133 17.3901 20.8877 17.3901H18.1177C15.1553 17.3901 12.7452 19.8002 12.7452 22.7626V31.3513C12.7452 34.2673 13.9812 37.0013 16.1502 38.923V42.9412C16.1502 42.9787 16.1531 43.0165 16.1537 43.054L12.0288 44.8472L12.0268 44.8481L6.16681 47.3956C3.01381 48.7213 0.976562 51.7887 0.976562 55.21V63.1337C0.976562 63.6516 1.39631 64.0712 1.91406 64.0712C2.43181 64.0712 2.85156 63.6516 2.85156 63.1337V55.21C2.85156 52.5455 4.43819 50.1566 6.90406 49.1196L11.8619 46.9642C12.4447 48.3647 13.2984 49.6566 14.3657 50.7438C14.5493 50.9308 14.7919 51.0246 15.0348 51.0246C15.2718 51.0246 15.5089 50.9352 15.6914 50.7562C16.0609 50.3936 16.0664 49.8 15.7038 49.4305C14.7967 48.5063 14.0732 47.4073 13.5819 46.2166L16.4612 44.9648C17.3263 47.711 19.8963 49.66 22.8689 49.66C25.8619 49.66 28.4367 47.6947 29.2877 44.9282L32.1732 46.1648C31.4891 47.8476 30.3403 49.3447 28.8777 50.44C27.1324 51.747 25.0541 52.4377 22.8671 52.4377C21.2916 52.4377 19.7836 52.0831 18.3851 51.3835C17.9219 51.1521 17.3589 51.3396 17.1272 51.8027C16.8956 52.2657 17.0832 52.8288 17.5463 53.0606C19.2077 53.8915 20.9978 54.3128 22.8671 54.3128C25.4624 54.3128 27.9296 53.4926 30.0017 51.9408C31.7261 50.6495 33.0824 48.8861 33.8962 46.9032L38.9571 49.0722C41.3434 50.1285 42.8853 52.498 42.8853 55.1086V63.1336C42.8853 63.6515 43.3051 64.0711 43.8228 64.0711C44.3406 64.0711 44.7603 63.6515 44.7603 63.1336V55.1086C44.7603 51.7567 42.7803 48.7145 39.7059 47.3535ZM33.3189 34.5507C33.3189 35.2477 32.7519 35.8147 32.0549 35.8147C31.3579 35.8147 30.7909 35.2477 30.7909 34.5507C30.7909 33.573 31.4823 32.5628 32.0644 31.9095C32.6047 32.4981 33.3189 33.4791 33.3189 34.5507ZM14.6203 31.3513V28.6608C15.0439 28.5772 15.4537 28.4343 15.8319 28.2372C16.4043 27.9405 16.8997 27.5301 17.3047 27.0175C17.6257 26.6112 17.5566 26.0216 17.1503 25.7007C16.7441 25.3797 16.1546 25.4488 15.8336 25.8551C15.5944 26.1577 15.3036 26.3992 14.9671 26.5737C14.8548 26.6322 14.7388 26.6812 14.6204 26.7227V22.7626C14.6204 20.834 16.1894 19.2651 18.1179 19.2651H20.8879C22.6436 19.2651 24.3243 18.518 25.5043 17.2097L26.4666 16.125C29.3127 17.4983 31.1179 20.3476 31.1179 23.5513V25.4552C29.9479 25.8883 28.7166 26.1101 27.4504 26.1101C24.6932 26.1101 22.0806 25.0553 20.0936 23.1401C19.7207 22.781 19.1273 22.7921 18.7679 23.1645C18.4086 23.5372 18.4196 24.1307 18.7923 24.4901C21.1306 26.7437 24.2054 27.985 27.4504 27.985C28.7052 27.985 29.9327 27.8015 31.1124 27.4386C31.1161 27.5045 31.1141 30.196 31.1141 30.196C30.4191 30.8722 28.9159 32.5642 28.9159 34.5507C28.9159 35.2026 29.1158 35.8086 29.4573 36.311C29.0533 36.8478 28.5849 37.3335 28.0583 37.7597C26.5969 38.9456 24.7532 39.5988 22.8666 39.5988C20.9807 39.5988 19.1382 38.9465 17.6778 37.7616C15.7348 36.1878 14.6203 33.8513 14.6203 31.3513ZM22.8691 47.7851C20.4253 47.7851 18.3587 45.959 18.0619 43.5362C18.0376 43.3396 18.0253 43.1393 18.0253 42.9413V40.2385C19.5016 41.0416 21.1694 41.4738 22.8666 41.4738C24.5648 41.4738 26.2342 41.0408 27.7116 40.2366V42.9413C27.7116 43.1296 27.7003 43.32 27.6778 43.5095C27.3947 45.947 25.3274 47.7851 22.8691 47.7851Z" stroke="url(#paint6_linear)" stroke-width="0.8" mask="url(#path-1-outside-1)"/>
<path d="M10.2681 56.8343C9.75031 56.8343 9.33056 57.2539 9.33056 57.7718V63.1338C9.33056 63.6516 9.75031 64.0713 10.2681 64.0713C10.7858 64.0713 11.2056 63.6516 11.2056 63.1338V57.7718C11.2056 57.254 10.7858 56.8343 10.2681 56.8343Z" stroke="url(#paint7_linear)" stroke-width="0.8" mask="url(#path-1-outside-1)"/>
<path d="M35.4938 56.8343C34.9761 56.8343 34.5563 57.2539 34.5563 57.7718V63.1338C34.5563 63.6516 34.9761 64.0713 35.4938 64.0713C36.0116 64.0713 36.4313 63.6516 36.4313 63.1338V57.7718C36.4313 57.254 36.0117 56.8343 35.4938 56.8343Z" stroke="url(#paint8_linear)" stroke-width="0.8" mask="url(#path-1-outside-1)"/>
<path d="M53.7718 2.53879C53.3539 2.23291 52.7674 2.32366 52.4615 2.74154C52.1558 3.15941 52.2465 3.74591 52.6644 4.05166C55.4733 6.10741 57.1502 9.40991 57.1502 12.8857C57.1502 18.9177 52.2428 23.8252 46.2107 23.8252C45.684 23.8252 45.1512 23.7867 44.6272 23.7107C44.3132 23.6654 43.9982 23.7813 43.7889 24.0193C43.0719 24.8342 42.2642 25.561 41.388 26.1802C40.2833 26.9607 39.0658 27.5753 37.7693 28.007C37.7332 28.0189 37.6492 28.0468 37.5775 27.9453C37.5102 27.8495 37.5597 27.7864 37.5834 27.756C38.4467 26.6557 39.1355 25.4432 39.631 24.152C39.8094 23.6872 39.9659 23.1995 40.0962 22.7027C40.1937 22.3307 40.0542 21.9369 39.7442 21.7093C36.9433 19.6529 35.2712 16.3543 35.2712 12.8857C35.2713 6.85379 40.1787 1.94629 46.2107 1.94629C47.3904 1.94629 48.5503 2.13266 49.6583 2.50041C50.1497 2.66391 50.6803 2.39741 50.8433 1.90591C51.0063 1.41441 50.7402 0.883914 50.2488 0.720914C48.9502 0.289789 47.5915 0.0712891 46.2107 0.0712891C39.1448 0.0712891 33.3962 5.81979 33.3962 12.8858C33.3962 16.7284 35.1478 20.3928 38.1124 22.8162C38.0409 23.0424 37.9635 23.2643 37.8807 23.4803C37.4522 24.5967 36.8559 25.6459 36.1083 26.5989C35.5497 27.3109 35.5242 28.2859 36.0447 29.025C36.4367 29.5815 37.0578 29.8928 37.7078 29.8927C37.925 29.8927 38.1455 29.8579 38.3618 29.7859C39.8328 29.296 41.215 28.598 42.47 27.7113C43.3304 27.1034 44.1324 26.4043 44.8594 25.6289C45.309 25.6762 45.7617 25.7 46.2107 25.7C53.2765 25.7 59.0252 19.9515 59.0252 12.8855C59.0252 8.81429 57.0613 4.94629 53.7718 2.53879Z" stroke="url(#paint9_linear)" stroke-width="0.8" mask="url(#path-1-outside-1)"/>
<path d="M46.2108 20.6917C46.7286 20.6917 47.1483 20.2719 47.1483 19.7542C47.1483 19.2364 46.7286 18.8167 46.2108 18.8167C45.6931 18.8167 45.2733 19.2364 45.2733 19.7542C45.2733 20.2719 45.6931 20.6917 46.2108 20.6917Z" stroke="url(#paint10_linear)" stroke-width="0.8" mask="url(#path-1-outside-1)"/>
<path d="M50.5205 9.41792C50.404 7.17204 48.5501 5.37742 46.3 5.33204C46.2704 5.33142 46.2411 5.33104 46.2116 5.33104C44.0646 5.33104 42.2354 6.91367 41.9379 9.04542C41.9102 9.24317 41.8962 9.44529 41.8962 9.64617C41.8962 10.164 42.316 10.5837 42.8337 10.5837C43.3515 10.5837 43.7712 10.164 43.7712 9.64617C43.7712 9.53179 43.7791 9.41679 43.7949 9.30467C43.9652 8.08367 45.0214 7.18567 46.2621 7.20667C47.5341 7.23229 48.5821 8.24629 48.6479 9.51517C48.683 10.1924 48.446 10.8354 47.9806 11.3254C47.5149 11.816 46.8865 12.0862 46.2112 12.0862C45.6935 12.0862 45.2737 12.5058 45.2737 13.0237V16.5555C45.2737 17.0734 45.6935 17.493 46.2112 17.493C46.729 17.493 47.1487 17.0734 47.1487 16.5555V13.8569C47.979 13.6708 48.7476 13.2408 49.3404 12.6165C50.1635 11.7498 50.5825 10.6139 50.5205 9.41792Z" stroke="url(#paint11_linear)" stroke-width="0.8" mask="url(#path-1-outside-1)"/>
<defs>
<linearGradient id="paint0_linear" x1="30.0009" y1="0.0712891" x2="30.0009" y2="64.0713" gradientUnits="userSpaceOnUse">
<stop stop-color="#2AF6FF"/>
<stop offset="1" stop-color="#A615FC"/>
</linearGradient>
<linearGradient id="paint1_linear" x1="30.0009" y1="0.0712891" x2="30.0009" y2="64.0713" gradientUnits="userSpaceOnUse">
<stop stop-color="#2AF6FF"/>
<stop offset="1" stop-color="#A615FC"/>
</linearGradient>
<linearGradient id="paint2_linear" x1="30.0009" y1="0.0712891" x2="30.0009" y2="64.0713" gradientUnits="userSpaceOnUse">
<stop stop-color="#2AF6FF"/>
<stop offset="1" stop-color="#A615FC"/>
</linearGradient>
<linearGradient id="paint3_linear" x1="30.0009" y1="0.0712891" x2="30.0009" y2="64.0713" gradientUnits="userSpaceOnUse">
<stop stop-color="#2AF6FF"/>
<stop offset="1" stop-color="#A615FC"/>
</linearGradient>
<linearGradient id="paint4_linear" x1="30.0009" y1="0.0712891" x2="30.0009" y2="64.0713" gradientUnits="userSpaceOnUse">
<stop stop-color="#2AF6FF"/>
<stop offset="1" stop-color="#A615FC"/>
</linearGradient>
<linearGradient id="paint5_linear" x1="30.0009" y1="0.0712891" x2="30.0009" y2="64.0713" gradientUnits="userSpaceOnUse">
<stop stop-color="#2AF6FF"/>
<stop offset="1" stop-color="#A615FC"/>
</linearGradient>
<linearGradient id="paint6_linear" x1="30.0009" y1="0.0712891" x2="30.0009" y2="64.0713" gradientUnits="userSpaceOnUse">
<stop stop-color="#00D2D9"/>
<stop offset="1" stop-color="#A615FC"/>
</linearGradient>
<linearGradient id="paint7_linear" x1="30.0009" y1="0.0712891" x2="30.0009" y2="64.0713" gradientUnits="userSpaceOnUse">
<stop stop-color="#00D2D9"/>
<stop offset="1" stop-color="#A615FC"/>
</linearGradient>
<linearGradient id="paint8_linear" x1="30.0009" y1="0.0712891" x2="30.0009" y2="64.0713" gradientUnits="userSpaceOnUse">
<stop stop-color="#00D2D9"/>
<stop offset="1" stop-color="#A615FC"/>
</linearGradient>
<linearGradient id="paint9_linear" x1="30.0009" y1="0.0712891" x2="30.0009" y2="64.0713" gradientUnits="userSpaceOnUse">
<stop stop-color="#00D2D9"/>
<stop offset="1" stop-color="#A615FC"/>
</linearGradient>
<linearGradient id="paint10_linear" x1="30.0009" y1="0.0712891" x2="30.0009" y2="64.0713" gradientUnits="userSpaceOnUse">
<stop stop-color="#00D2D9"/>
<stop offset="1" stop-color="#A615FC"/>
</linearGradient>
<linearGradient id="paint11_linear" x1="30.0009" y1="0.0712891" x2="30.0009" y2="64.0713" gradientUnits="userSpaceOnUse">
<stop stop-color="#00D2D9"/>
<stop offset="1" stop-color="#A615FC"/>
</linearGradient>
</defs>
</svg>
