<svg width="64" height="65" viewBox="0 0 64 65" fill="none" xmlns="http://www.w3.org/2000/svg">
<path d="M6.19355 21.0177H10.3226V23.0822H6.19355V21.0177Z" fill="url(#paint0_linear)"/>
<path d="M60.9032 16.8887C62.6104 16.8887 64 15.4991 64 13.7919V3.46933C64 1.76218 62.6104 0.372559 60.9032 0.372559H46.4516C44.7445 0.372559 43.3548 1.76218 43.3548 3.46933V13.7919C43.3548 15.4991 44.7445 16.8887 46.4516 16.8887H49.5484V18.9532H47.4839V21.0177H52.6452V31.3403H48.3851C47.5615 30.5364 46.5474 29.9209 45.4123 29.5822C45.4173 29.4779 45.4194 29.3771 45.4194 29.2758C45.4194 24.7224 41.7147 21.0177 37.1613 21.0177C34.3362 21.0177 31.7102 22.4875 30.2061 24.8383C29.1467 24.3625 28.001 24.1145 26.8387 24.1145C23.4128 24.1145 20.3281 26.2738 19.1215 29.4411C18.3372 29.6095 17.6063 29.9109 16.9425 30.308H9.29032V27.2113H13.4194C15.1265 27.2113 16.5161 25.8217 16.5161 24.1145V3.46933C16.5161 1.76218 15.1265 0.372559 13.4194 0.372559H3.09677C1.38962 0.372559 0 1.76218 0 3.46933V24.1145C0 25.8217 1.38962 27.2113 3.09677 27.2113H7.22581V32.3726H14.747C14.308 32.9991 13.9672 33.6906 13.7434 34.4371H9.29032V45.7919H5.16129C3.45413 45.7919 2.06452 47.1815 2.06452 48.8887V58.179H0V61.2758C0 62.9829 1.38962 64.3726 3.09677 64.3726H19.6129C21.3201 64.3726 22.7097 62.9829 22.7097 61.2758V58.179H20.6452V48.8887C20.6452 47.1815 19.2555 45.7919 17.5484 45.7919H11.3548V36.5016H13.4194C13.4194 40.485 16.6618 43.7274 20.6452 43.7274H43.3548C46.9874 43.7274 49.9945 41.0293 50.498 37.5338H54.7097V45.7919H47.4839V64.3726H64V45.7919H56.7742V35.4693H50.4939C50.3866 34.7425 50.1638 34.051 49.8518 33.4048H54.7097V21.0177H59.871V18.9532H57.8064V16.8887H60.9032ZM14.4516 16.8887H2.06452V6.56611H14.4516V16.8887ZM3.09677 2.43707H13.4194C13.9889 2.43707 14.4516 2.89978 14.4516 3.46933V4.50159H2.06452V3.46933C2.06452 2.89978 2.52722 2.43707 3.09677 2.43707ZM2.06452 24.1145V18.9532H14.4516V24.1145C14.4516 24.6841 13.9889 25.1468 13.4194 25.1468H3.09677C2.52722 25.1468 2.06452 24.6841 2.06452 24.1145ZM20.6452 61.2758C20.6452 61.8453 20.1825 62.308 19.6129 62.308H3.09677C2.52722 62.308 2.06452 61.8453 2.06452 61.2758V60.2435H20.6452V61.2758ZM18.5806 48.8887V58.179H4.12903V48.8887C4.12903 48.3191 4.59173 47.8564 5.16129 47.8564H17.5484C18.1179 47.8564 18.5806 48.3191 18.5806 48.8887ZM49.5484 62.308V56.1145H61.9355V62.308H49.5484ZM61.9355 54.05H49.5484V47.8564H61.9355V54.05ZM43.3548 41.6629H20.6452C17.7994 41.6629 15.4839 39.3474 15.4839 36.5016C15.4839 33.8922 17.437 31.6911 20.0257 31.3816L20.7031 31.3L20.8942 30.6447C21.6578 28.0152 24.1033 26.179 26.8387 26.179C27.9783 26.179 29.0973 26.4991 30.0781 27.1029L31.0635 27.7108L31.5549 26.6609C32.5711 24.486 34.7717 23.0822 37.1613 23.0822C40.5771 23.0822 43.3548 25.86 43.3548 29.2758C43.3548 29.5606 43.3291 29.864 43.2732 30.2304L43.1174 31.2516L44.1381 31.4063C46.6341 31.7874 48.5161 33.9779 48.5161 36.5016C48.5161 39.3474 46.2006 41.6629 43.3548 41.6629ZM46.4516 2.43707H60.9032C61.4728 2.43707 61.9355 2.89978 61.9355 3.46933V10.6951H45.4194V3.46933C45.4194 2.89978 45.8821 2.43707 46.4516 2.43707ZM45.4194 13.7919V12.7597H61.9355V13.7919C61.9355 14.3615 61.4728 14.8242 60.9032 14.8242H46.4516C45.8821 14.8242 45.4194 14.3615 45.4194 13.7919ZM55.7419 18.9532H51.6129V16.8887H55.7419V18.9532Z" fill="url(#paint1_linear)"/>
<path d="M51.6129 49.9209H53.6774V51.9855H51.6129V49.9209Z" fill="url(#paint2_linear)"/>
<path d="M57.8064 58.179H59.871V60.2435H57.8064V58.179Z" fill="url(#paint3_linear)"/>
<path d="M55.7419 49.9209H59.871V51.9855H55.7419V49.9209Z" fill="url(#paint4_linear)"/>
<path d="M51.6129 58.179H55.7419V60.2435H51.6129V58.179Z" fill="url(#paint5_linear)"/>
<defs>
<linearGradient id="paint0_linear" x1="32" y1="0.372559" x2="32" y2="64.3726" gradientUnits="userSpaceOnUse">
<stop stop-color="#00D2D9"/>
<stop offset="1" stop-color="#A615FC"/>
</linearGradient>
<linearGradient id="paint1_linear" x1="32" y1="0.372559" x2="32" y2="64.3726" gradientUnits="userSpaceOnUse">
<stop stop-color="#00D2D9"/>
<stop offset="1" stop-color="#A615FC"/>
</linearGradient>
<linearGradient id="paint2_linear" x1="32" y1="0.372559" x2="32" y2="64.3726" gradientUnits="userSpaceOnUse">
<stop stop-color="#00D2D9"/>
<stop offset="1" stop-color="#A615FC"/>
</linearGradient>
<linearGradient id="paint3_linear" x1="32" y1="0.372559" x2="32" y2="64.3726" gradientUnits="userSpaceOnUse">
<stop stop-color="#00D2D9"/>
<stop offset="1" stop-color="#A615FC"/>
</linearGradient>
<linearGradient id="paint4_linear" x1="32" y1="0.372559" x2="32" y2="64.3726" gradientUnits="userSpaceOnUse">
<stop stop-color="#00D2D9"/>
<stop offset="1" stop-color="#A615FC"/>
</linearGradient>
<linearGradient id="paint5_linear" x1="32" y1="0.372559" x2="32" y2="64.3726" gradientUnits="userSpaceOnUse">
<stop stop-color="#00D2D9"/>
<stop offset="1" stop-color="#A615FC"/>
</linearGradient>
</defs>
</svg>
