<svg width="64" height="59" viewBox="0 0 64 59" fill="none" xmlns="http://www.w3.org/2000/svg">
<path d="M63.9999 36.767C63.9999 36.7656 63.9994 36.7636 63.9994 36.7621V5.70409C63.9994 2.90332 61.7211 0.625 58.9203 0.625H5.07909C2.2788 0.625 0 2.90332 0 5.70409V40.9086C0 43.7094 2.2788 45.9877 5.07909 45.9877H11.6767C12.1948 45.9877 12.6142 45.5678 12.6142 45.0502C12.6142 44.5321 12.1948 44.1127 11.6767 44.1127H5.07909C3.31249 44.1127 1.875 42.6752 1.875 40.9086V37.7045H62.1244V40.9086C62.1244 42.6752 60.6874 44.1127 58.9203 44.1127H34.0732C34.0722 44.1127 34.0717 44.1127 34.0707 44.1127C34.0702 44.1127 34.0693 44.1127 34.0688 44.1127H29.9316C29.9306 44.1127 29.9301 44.1127 29.9291 44.1127C29.9287 44.1127 29.9277 44.1127 29.9267 44.1127H24.2563C24.2548 44.1127 24.2534 44.1127 24.2519 44.1127H15.4336C14.916 44.1127 14.4961 44.5321 14.4961 45.0502C14.4961 45.5678 14.916 45.9877 15.4336 45.9877H23.1723L22.3715 52.3959H17.5044C16.9868 52.3959 16.5669 52.8158 16.5669 53.3334V57.475C16.5669 57.9931 16.9868 58.4125 17.5044 58.4125H46.496C47.0141 58.4125 47.4335 57.9931 47.4335 57.475V53.3334C47.4335 52.8158 47.0141 52.3959 46.496 52.3959H41.6288L40.828 45.9877H58.9208C61.7216 45.9877 63.9999 43.7094 63.9999 40.9086V36.7719C63.9994 36.7704 63.9999 36.7685 63.9999 36.767ZM30.8666 45.9877H33.1332V48.2543H30.8666V45.9877ZM45.5585 56.5375H18.4419V54.2709H45.5585V56.5375ZM39.7392 52.3964H24.2607L25.062 45.9877H28.9916V49.1918C28.9916 49.7099 29.4111 50.1293 29.9291 50.1293H34.0707C34.5888 50.1293 35.0082 49.7099 35.0082 49.1918V45.9877H38.9384L39.7392 52.3964ZM57.9833 35.8295H6.01659V6.64159H57.9833V35.8295ZM59.8583 35.8295V5.70409C59.8583 5.18651 59.4389 4.76659 58.9208 4.76659H5.07909C4.56103 4.76659 4.14159 5.18651 4.14159 5.70409V35.8295H1.875V5.70409C1.875 3.93749 3.31249 2.5 5.07909 2.5H58.9203C60.6874 2.5 62.1244 3.93749 62.1244 5.70409V35.8295H59.8583Z" fill="url(#paint0_linear)"/>
<path d="M34.0708 41.8461C34.5888 41.8461 35.0083 41.4267 35.0083 40.9086C35.0083 40.3906 34.5888 39.9711 34.0708 39.9711H29.9292C29.4111 39.9711 28.9917 40.3906 28.9917 40.9086C28.9917 41.4267 29.4111 41.8461 29.9292 41.8461H34.0708Z" fill="url(#paint1_linear)"/>
<path d="M10.2563 14.9253H12.3266C12.8447 14.9253 13.2641 14.5059 13.2641 13.9878C13.2641 13.4697 12.8447 13.0503 12.3266 13.0503H10.2563C9.73824 13.0503 9.31881 13.4697 9.31881 13.9878C9.31881 14.5059 9.73824 14.9253 10.2563 14.9253Z" fill="url(#paint2_linear)"/>
<path d="M15.4331 11.8188C15.9512 11.8188 16.3706 11.3994 16.3706 10.8813V8.81103C16.3706 8.29296 15.9512 7.87353 15.4331 7.87353C14.9155 7.87353 14.4956 8.29296 14.4956 8.81103V10.8813C14.4956 11.3994 14.9155 11.8188 15.4331 11.8188Z" fill="url(#paint3_linear)"/>
<path d="M48.5663 11.8188C49.0844 11.8188 49.5038 11.3994 49.5038 10.8813V8.81054C49.5038 8.29296 49.0844 7.87304 48.5663 7.87304C48.0487 7.87304 47.6288 8.29296 47.6288 8.81054V10.8813C47.6288 11.3994 48.0487 11.8188 48.5663 11.8188Z" fill="url(#paint4_linear)"/>
<path d="M51.6727 14.9253H53.7435C54.2616 14.9253 54.681 14.5059 54.681 13.9878C54.681 13.4697 54.2616 13.0503 53.7435 13.0503H51.6727C51.1546 13.0503 50.7352 13.4697 50.7352 13.9878C50.7352 14.5059 51.1546 14.9253 51.6727 14.9253Z" fill="url(#paint5_linear)"/>
<path d="M51.6727 29.4214H53.7435C54.2611 29.4214 54.681 29.0015 54.681 28.4839C54.681 27.9658 54.2611 27.5464 53.7435 27.5464H51.6727C51.1546 27.5464 50.7352 27.9658 50.7352 28.4839C50.7352 29.0015 51.1546 29.4214 51.6727 29.4214Z" fill="url(#paint6_linear)"/>
<path d="M48.5663 30.6523C48.0487 30.6523 47.6288 31.0717 47.6288 31.5898V33.6606C47.6288 34.1787 48.0487 34.5981 48.5663 34.5981C49.0844 34.5981 49.5038 34.1787 49.5038 33.6606V31.5898C49.5038 31.0717 49.0844 30.6523 48.5663 30.6523Z" fill="url(#paint7_linear)"/>
<path d="M15.4331 34.5981C15.9512 34.5981 16.3706 34.1787 16.3706 33.6606V31.5898C16.3706 31.0717 15.9512 30.6523 15.4331 30.6523C14.9155 30.6523 14.4956 31.0717 14.4956 31.5898V33.6606C14.4956 34.1787 14.9155 34.5981 15.4331 34.5981Z" fill="url(#paint8_linear)"/>
<path d="M10.2563 29.4214H12.3266C12.8447 29.4214 13.2641 29.0015 13.2641 28.4839C13.2641 27.9658 12.8447 27.5464 12.3266 27.5464H10.2563C9.73824 27.5464 9.31881 27.9658 9.31881 28.4839C9.31881 29.0015 9.73824 29.4214 10.2563 29.4214Z" fill="url(#paint9_linear)"/>
<path d="M49.5039 28.4839V13.9878C49.5039 13.7393 49.4053 13.5005 49.2295 13.3247C49.0537 13.1489 48.8154 13.0503 48.5664 13.0503H15.4336C14.9155 13.0503 14.4961 13.4697 14.4961 13.9878V28.4839C14.4961 29.0015 14.9155 29.4214 15.4336 29.4214H48.5664C49.0845 29.4214 49.5039 29.0015 49.5039 28.4839ZM47.6289 14.9253V23.7212L38.6943 18.3609C38.3974 18.1826 38.0268 18.1826 37.73 18.3609L32 21.7988L26.2695 18.3609C25.9726 18.1826 25.6016 18.1826 25.3047 18.3609L16.3706 23.7217V14.9253H47.6289ZM16.3711 27.5464V25.9082L25.7876 20.2578L31.5141 23.6939C31.5195 23.6973 31.5244 23.7002 31.5298 23.7036L35.6592 26.1812C36.103 26.4473 36.6792 26.3032 36.9458 25.8594C37.2119 25.4155 37.0679 24.8399 36.624 24.5733L33.8223 22.8921L38.2124 20.2583L47.6289 25.9082V27.5464H16.3711Z" fill="url(#paint10_linear)"/>
<path d="M44.4248 20.102C45.7983 20.102 46.9155 18.9849 46.9155 17.6113C46.9155 16.2383 45.7983 15.1211 44.4248 15.1211C43.0517 15.1211 41.934 16.2383 41.934 17.6113C41.934 18.9849 43.0517 20.102 44.4248 20.102ZM44.4248 16.9961C44.7641 16.9961 45.0405 17.272 45.0405 17.6113C45.0405 17.9512 44.7641 18.227 44.4248 18.227C44.0854 18.227 43.809 17.9512 43.809 17.6113C43.8095 17.272 44.0854 16.9961 44.4248 16.9961Z" fill="url(#paint11_linear)"/>
<defs>
<linearGradient id="paint0_linear" x1="31.9999" y1="0.625" x2="31.9999" y2="58.4125" gradientUnits="userSpaceOnUse">
<stop stop-color="#00D2D9"/>
<stop offset="1" stop-color="#A615FC"/>
</linearGradient>
<linearGradient id="paint1_linear" x1="31.9999" y1="0.625" x2="31.9999" y2="58.4125" gradientUnits="userSpaceOnUse">
<stop stop-color="#00D2D9"/>
<stop offset="1" stop-color="#A615FC"/>
</linearGradient>
<linearGradient id="paint2_linear" x1="31.9999" y1="0.625" x2="31.9999" y2="58.4125" gradientUnits="userSpaceOnUse">
<stop stop-color="#00D2D9"/>
<stop offset="1" stop-color="#A615FC"/>
</linearGradient>
<linearGradient id="paint3_linear" x1="31.9999" y1="0.625" x2="31.9999" y2="58.4125" gradientUnits="userSpaceOnUse">
<stop stop-color="#00D2D9"/>
<stop offset="1" stop-color="#A615FC"/>
</linearGradient>
<linearGradient id="paint4_linear" x1="31.9999" y1="0.625" x2="31.9999" y2="58.4125" gradientUnits="userSpaceOnUse">
<stop stop-color="#00D2D9"/>
<stop offset="1" stop-color="#A615FC"/>
</linearGradient>
<linearGradient id="paint5_linear" x1="31.9999" y1="0.625" x2="31.9999" y2="58.4125" gradientUnits="userSpaceOnUse">
<stop stop-color="#00D2D9"/>
<stop offset="1" stop-color="#A615FC"/>
</linearGradient>
<linearGradient id="paint6_linear" x1="31.9999" y1="0.625" x2="31.9999" y2="58.4125" gradientUnits="userSpaceOnUse">
<stop stop-color="#00D2D9"/>
<stop offset="1" stop-color="#A615FC"/>
</linearGradient>
<linearGradient id="paint7_linear" x1="31.9999" y1="0.625" x2="31.9999" y2="58.4125" gradientUnits="userSpaceOnUse">
<stop stop-color="#00D2D9"/>
<stop offset="1" stop-color="#A615FC"/>
</linearGradient>
<linearGradient id="paint8_linear" x1="31.9999" y1="0.625" x2="31.9999" y2="58.4125" gradientUnits="userSpaceOnUse">
<stop stop-color="#00D2D9"/>
<stop offset="1" stop-color="#A615FC"/>
</linearGradient>
<linearGradient id="paint9_linear" x1="31.9999" y1="0.625" x2="31.9999" y2="58.4125" gradientUnits="userSpaceOnUse">
<stop stop-color="#00D2D9"/>
<stop offset="1" stop-color="#A615FC"/>
</linearGradient>
<linearGradient id="paint10_linear" x1="31.9999" y1="0.625" x2="31.9999" y2="58.4125" gradientUnits="userSpaceOnUse">
<stop stop-color="#00D2D9"/>
<stop offset="1" stop-color="#A615FC"/>
</linearGradient>
<linearGradient id="paint11_linear" x1="31.9999" y1="0.625" x2="31.9999" y2="58.4125" gradientUnits="userSpaceOnUse">
<stop stop-color="#00D2D9"/>
<stop offset="1" stop-color="#A615FC"/>
</linearGradient>
</defs>
</svg>
