<svg width="60" height="59" viewBox="0 0 60 59" fill="none" xmlns="http://www.w3.org/2000/svg">
<path d="M59.1321 46.756H53.8883C53.8883 46.6083 53.8495 46.4631 53.7769 46.3347C51.6816 42.6777 53.405 38.996 53.7769 38.3016L53.8016 38.2643C53.8253 38.2222 53.8423 38.1762 53.851 38.1282H56.0824C56.3104 38.1307 56.5293 38.0416 56.6901 37.8803C56.8552 37.7161 56.9487 37.4934 56.9501 37.2605V36.7767C56.9501 36.6251 56.9119 36.476 56.8388 36.3428C54.7439 32.6858 56.4669 29.0041 56.8388 28.3102L56.8635 28.2729C56.923 28.1533 56.9526 28.0216 56.9501 27.8884V27.3678C56.9516 27.1373 56.861 26.9155 56.6978 26.7528C56.5347 26.5896 56.3134 26.4986 56.0824 26.5001H44.876C45.0397 25.4003 45.1225 24.2895 45.1239 23.1777C45.1239 10.7316 35.008 0.615723 22.562 0.615723C10.1159 0.615723 6.10352e-05 10.7316 6.10352e-05 23.1777C6.10352e-05 35.6242 10.1159 45.7396 22.562 45.7396C23.8414 45.7377 25.1183 45.6297 26.3803 45.4176C26.4175 45.5289 26.4543 45.6282 26.4916 45.7396C27.0994 47.2892 28.339 48.1197 30.0746 48.1197H33.1611C32.9292 48.4315 32.7413 48.7734 32.6033 49.1366C32.1447 50.3143 32.1447 51.6779 32.1447 52.5704C32.1447 53.4628 32.1447 54.839 32.6033 56.0041C33.2105 57.5537 34.4502 58.3842 36.1857 58.3842H59.1321C59.3626 58.3857 59.5844 58.2946 59.7471 58.1319C59.9103 57.9687 60.0014 57.7469 59.9999 57.5164V57.0332C59.9999 56.8811 59.9612 56.732 59.8885 56.5993C57.7932 52.9423 59.5166 49.2605 59.8885 48.5661L59.9132 48.5288C59.9723 48.4097 60.0023 48.278 59.9999 48.1448V47.6238C60.0014 47.3933 59.9103 47.172 59.7471 47.0088C59.5844 46.8456 59.3626 46.7546 59.1321 46.756ZM54.9047 36.3927L39.682 36.3801V33.3928C39.6834 33.1618 39.5924 32.9405 39.4292 32.7773C39.266 32.6141 39.0447 32.5236 38.8142 32.525H35.256C35.0255 32.5236 34.8042 32.6141 34.641 32.7773C34.4778 32.9405 34.3868 33.1618 34.3882 33.3928V36.4048H33.1238C31.2024 36.4048 30.8184 34.9051 30.8184 32.3265C30.8184 29.7479 31.1903 28.2482 33.1238 28.2482H54.9546C54.3347 29.7358 53.3677 32.9957 54.9047 36.3927ZM37.9464 34.248V41.686C37.3847 41.3514 36.6855 41.3514 36.1237 41.686V34.248H37.9464ZM6.49572 36.4174C3.60381 32.9241 1.93995 28.577 1.76029 24.0454H9.33484C9.38811 27.086 9.90625 30.0999 10.8718 32.9836C9.27189 33.9352 7.80076 35.0891 6.49572 36.4174ZM10.8597 13.3722C9.92998 16.0995 9.40893 19.0993 9.32225 22.3099H1.76029C1.94576 17.7798 3.60914 13.4342 6.49572 9.93792C7.79882 11.2628 9.26511 12.4168 10.8597 13.3722ZM38.5784 9.88853C41.5003 13.3877 43.1826 17.7551 43.3637 22.3099H35.7891C35.7025 19.0868 35.1819 16.0622 34.2395 13.3223C35.8254 12.3659 37.2835 11.2125 38.5784 9.88853ZM33.1238 26.5001C31.3883 26.5001 30.1486 27.3184 29.5414 28.8801C29.3196 29.4777 29.186 30.1038 29.1448 30.7396C27.2882 30.1784 25.3677 29.8578 23.4298 29.7852V24.0454H34.0662C34.0415 24.8759 33.9916 25.6943 33.9049 26.5001H33.1238ZM34.0662 22.3099H23.4298V16.5701C26.6568 16.4476 29.8189 15.6317 32.7026 14.178C33.5509 16.8074 34.0105 19.5473 34.0662 22.3099ZM23.4298 14.8346V2.62389C27.3221 4.70662 30.2973 8.16558 32.0948 12.5538C29.4068 13.9349 26.4495 14.7135 23.4298 14.8346ZM21.6942 14.8346C18.6691 14.7145 15.7056 13.945 13.004 12.5785C14.8015 8.17769 17.7893 4.70662 21.6942 2.62389V14.8346ZM21.6942 16.5827V22.3099H11.0578C11.1154 19.5604 11.5706 16.8341 12.4093 14.2148C15.3003 15.6569 18.4658 16.4641 21.6942 16.5827ZM11.0578 24.0454H21.6942V29.7726C18.4677 29.8932 15.3032 30.696 12.4093 32.128C11.5696 29.5135 11.1144 26.7911 11.0578 24.0454ZM21.6942 31.5207V43.744C17.7893 41.6613 14.8015 38.1776 13.004 33.7768C15.7056 32.4103 18.6691 31.6408 21.6942 31.5207ZM26.4916 38.8594C26.0824 39.9258 26.0456 41.1407 26.0331 42.0332C25.2156 42.6729 24.345 43.2414 23.4298 43.7314V31.5081C25.3522 31.5827 27.2548 31.9246 29.0828 32.525C29.0828 33.4175 29.1196 34.6572 29.5414 35.7356C29.6349 35.9937 29.7598 36.2392 29.9133 36.4668C28.2519 36.5414 27.0742 37.3471 26.4916 38.8594ZM35.6405 26.5001C35.7271 25.6943 35.777 24.8759 35.7891 24.0454H43.3637C43.3303 24.8677 43.2475 25.6875 43.1157 26.5001H35.6405ZM37.4133 8.59947C36.2758 9.77134 35.0022 10.8038 33.6197 11.6735C32.0948 8.06631 29.8266 5.04124 26.9255 2.80984C30.9142 3.66792 34.5616 5.68141 37.4133 8.59947ZM18.1985 2.80984C15.2852 5.04124 13.004 8.09101 11.4796 11.7107C10.0825 10.8454 8.79588 9.81299 7.64871 8.63627C10.5193 5.70368 14.1875 3.67809 18.1985 2.80984ZM7.6613 37.7065C8.81186 36.5336 10.0975 35.5017 11.4917 34.6325C13.0166 38.2643 15.2852 41.3015 18.2106 43.5329C14.1938 42.6811 10.5212 40.6526 7.6613 37.7065ZM27.7686 42.2932C27.7686 39.7151 28.1405 38.2149 30.0746 38.2149H34.4008V43.3721C34.4032 43.6971 34.5858 43.9934 34.8749 44.1421C35.164 44.2903 35.5117 44.266 35.777 44.0786L36.9915 43.2109L37.0041 43.1983C37.0152 43.1867 37.0312 43.1799 37.0477 43.1799C37.0637 43.1799 37.0796 43.1867 37.0908 43.1983L37.1034 43.2109L38.3183 44.0786C38.4651 44.1866 38.6438 44.2433 38.8263 44.2399C38.9643 44.2375 39.1004 44.2036 39.2229 44.1406C39.5105 43.9915 39.6917 43.6956 39.6941 43.3721V38.2149H51.9174C51.285 39.7151 50.3305 42.975 51.8675 46.372H30.0746C28.1405 46.3841 27.7686 44.8844 27.7686 42.2932ZM57.9545 56.6487H36.1736C34.2521 56.6487 33.8676 55.149 33.8676 52.5704C33.8676 49.9918 34.2395 48.4916 36.1736 48.4916H58.0164C57.384 49.9918 56.4175 53.2522 57.9545 56.6487Z" fill="url(#paint0_linear)"/>
<defs>
<linearGradient id="paint0_linear" x1="30" y1="0.13777" x2="30" y2="60.8983" gradientUnits="userSpaceOnUse">
<stop stop-color="#00D2D9"/>
<stop offset="1" stop-color="#A615FC"/>
</linearGradient>
</defs>
</svg>
