<svg width="15" height="20" viewBox="0 0 15 20" fill="none" xmlns="http://www.w3.org/2000/svg">
<path d="M4.55689 6.94616L4.55522 6.94699L4.55272 6.94866L4.55689 6.94616ZM12.8519 6.79033C12.7939 6.73439 12.7296 6.68545 12.6602 6.64449C12.562 6.58668 12.453 6.54961 12.3399 6.5356C12.2268 6.52159 12.112 6.53092 12.0027 6.56302C11.8933 6.59512 11.7917 6.64931 11.7042 6.72223C11.6166 6.79516 11.5449 6.88527 11.4936 6.98699C11.2065 7.55276 10.8106 8.05628 10.3286 8.46866C10.4025 8.05328 10.4398 7.63223 10.4402 7.21033C10.4418 5.92711 10.1033 4.66638 9.45925 3.55651C8.81517 2.44664 7.88848 1.52727 6.77355 0.891992C6.65069 0.822183 6.51209 0.784763 6.37079 0.783251C6.22949 0.781739 6.09012 0.816184 5.96579 0.883348C5.84146 0.950512 5.73626 1.04819 5.66006 1.1672C5.58387 1.2862 5.53918 1.42263 5.53022 1.56366C5.48356 2.35374 5.277 3.12613 4.92305 3.83403C4.5691 4.54194 4.07512 5.17062 3.47105 5.68199L3.27938 5.83783C2.6474 6.26303 2.08801 6.78724 1.62272 7.39033C0.899615 8.30125 0.39871 9.36814 0.159732 10.5064C-0.0792456 11.6446 -0.0497216 12.8228 0.245962 13.9477C0.541646 15.0725 1.09536 16.113 1.86317 16.9865C2.63099 17.8601 3.5918 18.5427 4.66938 18.9803C4.7959 19.0318 4.93313 19.0514 5.06901 19.0374C5.20488 19.0234 5.33523 18.9762 5.44858 18.9C5.56193 18.8238 5.6548 18.7209 5.71903 18.6003C5.78325 18.4797 5.81686 18.3453 5.81688 18.2087C5.81619 18.1204 5.80214 18.0327 5.77522 17.9487C5.58877 17.2479 5.53507 16.5184 5.61688 15.7978C6.40561 17.285 7.67151 18.4637 9.21105 19.1445C9.39889 19.2285 9.6112 19.2397 9.80688 19.1762C11.0231 18.7835 12.1188 18.0865 12.9897 17.1512C13.8607 16.2159 14.4781 15.0734 14.7832 13.8323C15.0883 12.5913 15.071 11.2928 14.733 10.0603C14.395 8.82774 13.7474 7.70212 12.8519 6.79033ZM9.59772 17.4828C8.87129 17.1147 8.23047 16.5979 7.71691 15.9659C7.20335 15.3339 6.82855 14.6009 6.61688 13.8145C6.55217 13.5497 6.5021 13.2815 6.46689 13.0112C6.44317 12.839 6.36624 12.6786 6.24685 12.5523C6.12747 12.4261 5.9716 12.3403 5.80105 12.307C5.74861 12.2968 5.6953 12.2918 5.64189 12.292C5.49547 12.2918 5.3516 12.3303 5.22476 12.4034C5.09792 12.4766 4.99259 12.5819 4.91938 12.7087C4.22809 13.9014 3.88053 15.2622 3.91522 16.6403C3.30702 16.1676 2.7987 15.5788 2.41973 14.9081C2.04076 14.2375 1.79869 13.4983 1.70753 12.7334C1.61637 11.9684 1.67795 11.193 1.88869 10.4521C2.09943 9.71117 2.45515 9.01943 2.93522 8.41699C3.29973 7.94352 3.73946 7.53307 4.23688 7.20199C4.25865 7.18803 4.27953 7.17272 4.29939 7.15616C4.29939 7.15616 4.54605 6.95199 4.55438 6.94783C5.74205 5.9437 6.58685 4.59405 6.97105 3.08699C7.87891 3.92646 8.48418 5.04221 8.69289 6.26096C8.90159 7.47972 8.70204 8.73328 8.12522 9.82699C8.04888 9.97297 8.01753 10.1383 8.03511 10.3021C8.0527 10.4659 8.11843 10.6208 8.22402 10.7473C8.3296 10.8737 8.47029 10.966 8.62832 11.0126C8.78635 11.0591 8.95463 11.0577 9.11189 11.0087C10.3883 10.6083 11.5115 9.8266 12.3302 8.76866C12.8225 9.49552 13.1443 10.3241 13.2718 11.1927C13.3992 12.0612 13.329 12.9473 13.0664 13.785C12.8037 14.6226 12.3554 15.3902 11.7548 16.0305C11.1542 16.6707 10.4169 17.1672 9.59772 17.4828Z" fill="#5E5E5E"/>
</svg>
