<svg width="62" height="63" viewBox="0 0 62 63" fill="none" xmlns="http://www.w3.org/2000/svg">
<path d="M31.0001 0.5H17.5667C16.996 0.5 16.5333 0.962681 16.5333 1.53334V8.7667H1.03328C0.46262 8.7667 -6.10352e-05 9.22938 -6.10352e-05 9.80004V61.4669C-6.10352e-05 62.0376 0.46262 62.5002 1.03328 62.5002H31.0001C31.5707 62.5002 32.0334 62.0376 32.0334 61.4669V1.53334C32.0334 0.962681 31.5707 0.5 31.0001 0.5ZM29.9667 54.2335H18.6V52.1669H29.9667V54.2335ZM2.06661 16.0001H16.5333V47.0002H2.06661V16.0001ZM29.9667 11.8667H18.6V8.7667H29.9667V11.8667ZM2.06661 49.0669H16.5333V52.1669H2.06661V49.0669ZM18.6 50.1002V13.9334H29.9667V50.1002H18.6ZM29.9667 2.56667V6.70003H18.6V2.56667H29.9667ZM16.5333 10.8334V13.9334H2.06661V10.8334H16.5333ZM2.06661 54.2335H16.5333V60.4336H2.06661V54.2335ZM18.6 60.4336V56.3002H29.9667V60.4336H18.6Z" fill="url(#paint0_linear)"/>
<path d="M61.9669 57.0732L49.5668 9.5397C49.4977 9.2733 49.3252 9.04574 49.087 8.90699C48.8494 8.76874 48.5663 8.7309 48.3004 8.80204L32.8003 12.9354C32.2514 13.0817 31.9234 13.6438 32.0667 14.1938L44.4668 61.7273C44.5359 61.9937 44.7089 62.2212 44.9471 62.3595C45.1847 62.4972 45.4678 62.5346 45.7332 62.4629L61.2333 58.3296C61.7812 58.1833 62.1087 57.6222 61.9669 57.0732ZM35.9725 20.9786L49.476 17.3785L49.9619 19.2383L36.4594 22.8439L35.9725 20.9786ZM50.4836 21.2435L56.4768 44.2327L42.9783 47.8342L36.9851 24.8435L50.4836 21.2435ZM57.003 46.2333L58.0611 50.2884L44.5576 53.8884L43.5036 49.8348L57.003 46.2333ZM47.8291 11.066L48.9543 15.38L35.4508 18.979L34.3266 14.667L47.8291 11.066ZM46.2045 60.201L45.0793 55.887L58.5828 52.286L59.707 56.5979L46.2045 60.201Z" fill="url(#paint1_linear)"/>
<path d="M13.4333 19.1001H5.16663C4.59597 19.1001 4.13329 19.5628 4.13329 20.1334V28.4001C4.13329 28.9708 4.59597 29.4334 5.16663 29.4334H13.4333C14.004 29.4334 14.4667 28.9708 14.4667 28.4001V20.1334C14.4667 19.5628 14.004 19.1001 13.4333 19.1001ZM12.4 27.3668H6.19996V21.1667H12.4V27.3668Z" fill="url(#paint2_linear)"/>
<defs>
<linearGradient id="paint0_linear" x1="30.9999" y1="0.5" x2="30.9999" y2="62.5002" gradientUnits="userSpaceOnUse">
<stop stop-color="#00D2D9"/>
<stop offset="1" stop-color="#A615FC"/>
</linearGradient>
<linearGradient id="paint1_linear" x1="30.9999" y1="0.5" x2="30.9999" y2="62.5002" gradientUnits="userSpaceOnUse">
<stop stop-color="#00D2D9"/>
<stop offset="1" stop-color="#A615FC"/>
</linearGradient>
<linearGradient id="paint2_linear" x1="30.9999" y1="0.5" x2="30.9999" y2="62.5002" gradientUnits="userSpaceOnUse">
<stop stop-color="#00D2D9"/>
<stop offset="1" stop-color="#A615FC"/>
</linearGradient>
</defs>
</svg>
