<svg width="65" height="62" viewBox="0 0 65 62" fill="none" xmlns="http://www.w3.org/2000/svg">
<path d="M64.8654 26.4146C64.8486 25.5674 64.6349 24.7684 64.2451 24.0155C63.8373 23.2282 63.1961 22.588 62.4874 22.0668L54.7634 16.0578V9.82578C54.7634 9.13553 54.2038 8.57578 53.5134 8.57578H45.1457L36.5727 1.90615C34.3909 0.208528 31.3434 0.208528 29.1617 1.90615L20.5887 8.57578H12.2222C11.5318 8.57578 10.9722 9.13553 10.9722 9.82578V16.0577L3.23569 22.0774C1.86781 23.1717 0.867188 24.7215 0.867188 26.518V56.1526C0.867188 59.1065 3.27031 61.5095 6.22406 61.5095H26.3643C27.0547 61.5095 27.6143 60.9498 27.6143 60.2595C27.6143 59.5693 27.0547 59.0095 26.3643 59.0095H6.22406C4.64881 59.0097 3.36719 57.728 3.36719 56.1526V26.518C3.36719 26.4133 3.37431 26.3094 3.38731 26.2064L32.1902 44.785C32.1931 44.7869 32.1963 44.7882 32.1993 44.79C32.2027 44.7922 32.2056 44.7948 32.2089 44.7969L55.1246 59.0097H37.3431C36.6527 59.0097 36.0931 59.5694 36.0931 60.2597C36.0931 60.9499 36.6527 61.5097 37.3431 61.5097H59.5116C62.4647 61.5097 64.8672 59.1065 64.8672 56.1528V26.518C64.8672 26.4833 64.8664 26.4489 64.8654 26.4146ZM60.9659 24.0505C60.9754 24.058 60.9851 24.0652 60.9948 24.0724C61.0027 24.0782 61.0094 24.0837 61.0172 24.0894L54.7634 28.1234V19.2252L60.9659 24.0505ZM30.6969 3.87928C31.9748 2.8849 33.7596 2.8849 35.0374 3.87928L41.0742 8.57578H24.6601L30.6969 3.87928ZM4.78394 24.0404L10.9721 19.2253V28.1239L4.72156 24.092C4.74194 24.0753 4.76269 24.0579 4.78394 24.0404ZM13.4722 11.0758H52.2634V29.7353L32.8677 42.247L13.4722 29.7365V11.0758ZM62.3672 56.1526C62.3672 57.5816 61.2587 58.8302 59.8369 58.9905L35.2059 43.7139L62.3548 26.2015C62.3554 26.2087 62.3567 26.216 62.3573 26.2232C62.3583 26.2343 62.3589 26.2448 62.3596 26.2554C62.3626 26.2982 62.3647 26.3407 62.3647 26.382C62.3647 26.3939 62.3648 26.4058 62.3652 26.4177C62.3656 26.4288 62.3656 26.4402 62.3658 26.4514C62.3661 26.4622 62.3661 26.4729 62.3663 26.4838L62.3671 26.518L62.3672 56.1526Z" fill="url(#paint0_linear)"/>
<path d="M33.137 59.782C32.7056 58.729 31.1515 58.7971 30.7966 59.868C30.43 60.9743 31.711 61.9424 32.677 61.2983C33.1656 60.9724 33.3628 60.3249 33.137 59.782Z" fill="url(#paint1_linear)"/>
<path d="M23.1643 20.568H42.8197C43.5101 20.568 44.0697 20.0083 44.0697 19.318C44.0697 18.6278 43.5101 18.068 42.8197 18.068H23.1643C22.474 18.068 21.9143 18.6278 21.9143 19.318C21.9143 20.0083 22.474 20.568 23.1643 20.568Z" fill="url(#paint2_linear)"/>
<path d="M44.0697 27.4191C44.0697 26.7288 43.5101 26.1691 42.8197 26.1691H23.1643C22.474 26.1691 21.9143 26.7288 21.9143 27.4191C21.9143 28.1093 22.474 28.6691 23.1643 28.6691H42.8197C43.5101 28.6691 44.0697 28.1094 44.0697 27.4191Z" fill="url(#paint3_linear)"/>
<defs>
<linearGradient id="paint0_linear" x1="32.8672" y1="0.632935" x2="32.8672" y2="61.5097" gradientUnits="userSpaceOnUse">
<stop stop-color="#00D2D9"/>
<stop offset="1" stop-color="#A615FC"/>
</linearGradient>
<linearGradient id="paint1_linear" x1="32.8672" y1="0.632935" x2="32.8672" y2="61.5097" gradientUnits="userSpaceOnUse">
<stop stop-color="#00D2D9"/>
<stop offset="1" stop-color="#A615FC"/>
</linearGradient>
<linearGradient id="paint2_linear" x1="32.8672" y1="0.632935" x2="32.8672" y2="61.5097" gradientUnits="userSpaceOnUse">
<stop stop-color="#00D2D9"/>
<stop offset="1" stop-color="#A615FC"/>
</linearGradient>
<linearGradient id="paint3_linear" x1="32.8672" y1="0.632935" x2="32.8672" y2="61.5097" gradientUnits="userSpaceOnUse">
<stop stop-color="#00D2D9"/>
<stop offset="1" stop-color="#A615FC"/>
</linearGradient>
</defs>
</svg>
