<svg width="65" height="65" viewBox="0 0 65 65" fill="none" xmlns="http://www.w3.org/2000/svg">
<path d="M47.9102 61.5713H3.91016C3.2207 61.5713 2.66016 61.0107 2.66016 60.3213V3.82129C2.66016 3.13184 3.2207 2.57129 3.91016 2.57129H6.41016C7.10059 2.57129 7.66016 2.01172 7.66016 1.32129C7.66016 0.630859 7.10059 0.0712891 6.41016 0.0712891H3.91016C1.84229 0.0712891 0.160156 1.75342 0.160156 3.82129V60.3213C0.160156 62.3892 1.84229 64.0713 3.91016 64.0713H47.9102C48.6001 64.0713 49.1602 63.5117 49.1602 62.8213C49.1602 62.1309 48.6006 61.5713 47.9102 61.5713Z" fill="url(#paint0_linear)"/>
<path d="M60.4102 0.0712891H16.4102C15.7197 0.0712891 15.1602 0.630859 15.1602 1.32129C15.1602 2.01172 15.7197 2.57129 16.4102 2.57129H60.4102C61.0996 2.57129 61.6602 3.13184 61.6602 3.82129V60.3213C61.6602 61.0107 61.0996 61.5713 60.4102 61.5713H57.9102C57.2197 61.5713 56.6602 62.1309 56.6602 62.8213C56.6602 63.5117 57.2197 64.0713 57.9102 64.0713H60.4102C62.478 64.0713 64.1602 62.3887 64.1602 60.3213V3.82129C64.1602 1.75342 62.478 0.0712891 60.4102 0.0712891Z" fill="url(#paint1_linear)"/>
<path d="M15.5664 22.165C19.2021 22.165 22.1602 19.207 22.1602 15.5713C22.1602 11.9351 19.2021 8.97754 15.5664 8.97754C11.9302 8.97754 8.97266 11.9355 8.97266 15.5713C8.97266 19.207 11.9302 22.165 15.5664 22.165ZM15.5664 11.4775C17.8237 11.4775 19.6602 13.314 19.6602 15.5713C19.6602 17.8286 17.8237 19.665 15.5664 19.665C13.3091 19.665 11.4727 17.8286 11.4727 15.5713C11.4727 13.314 13.3091 11.4775 15.5664 11.4775Z" fill="url(#paint2_linear)"/>
<path d="M43.1914 22.79C40.4287 22.79 37.7622 23.751 35.6289 25.4492V24.665C35.6289 23.9746 35.0688 23.415 34.3789 23.415H25.6602C24.9697 23.415 24.4102 23.9746 24.4102 24.665V53.915C24.4102 54.6055 24.9697 55.165 25.6602 55.165H34.8477C35.5376 55.165 36.0977 54.6055 36.0977 53.915V37.0322C36.0977 34.9473 37.7939 33.251 39.8789 33.251C41.9639 33.251 43.6602 34.9473 43.6602 37.0322V53.915C43.6602 54.6055 44.2197 55.165 44.9102 55.165H54.0977C54.7876 55.165 55.3477 54.6055 55.3477 53.915V34.9463C55.3477 28.2432 49.894 22.79 43.1914 22.79ZM52.8477 52.665H46.1602V37.0322C46.1602 33.5688 43.3423 30.751 39.8789 30.751C36.415 30.751 33.5977 33.5688 33.5977 37.0322V52.665H26.9102V25.915H33.1289V28.5415C33.1289 29.0825 33.4766 29.562 33.9912 29.73C34.5049 29.8975 35.0693 29.7153 35.3882 29.2783C37.2114 26.7812 40.1284 25.29 43.1914 25.29C48.5156 25.29 52.8477 29.6216 52.8477 34.9463V52.665Z" fill="url(#paint3_linear)"/>
<path d="M10.9727 23.415C10.2822 23.415 9.72266 23.9746 9.72266 24.665V53.915C9.72266 54.6055 10.2822 55.165 10.9727 55.165H20.1602C20.8501 55.165 21.4102 54.6055 21.4102 53.915V24.665C21.4102 23.9746 20.8501 23.415 20.1602 23.415H10.9727ZM18.9102 52.665H12.2227V25.915H18.9102V52.665Z" fill="url(#paint4_linear)"/>
<path d="M11.4106 2.57129C12.1006 2.57129 12.6606 2.01172 12.6606 1.32129C12.6606 0.630859 12.1006 0.0712891 11.4106 0.0712891H11.4097C10.7192 0.0712891 10.1602 0.630859 10.1602 1.32129C10.1602 2.01172 10.7202 2.57129 11.4106 2.57129Z" fill="url(#paint5_linear)"/>
<path d="M52.9106 61.5713H52.9097C52.2192 61.5713 51.6602 62.1309 51.6602 62.8213C51.6602 63.5117 52.2202 64.0713 52.9106 64.0713C53.6011 64.0713 54.1606 63.5117 54.1606 62.8213C54.1606 62.1309 53.6011 61.5713 52.9106 61.5713Z" fill="url(#paint6_linear)"/>
<defs>
<linearGradient id="paint0_linear" x1="32.1602" y1="0.0712891" x2="32.1602" y2="64.0713" gradientUnits="userSpaceOnUse">
<stop stop-color="#00D2D9"/>
<stop offset="1" stop-color="#A615FC"/>
</linearGradient>
<linearGradient id="paint1_linear" x1="32.1602" y1="0.0712891" x2="32.1602" y2="64.0713" gradientUnits="userSpaceOnUse">
<stop stop-color="#00D2D9"/>
<stop offset="1" stop-color="#A615FC"/>
</linearGradient>
<linearGradient id="paint2_linear" x1="32.1602" y1="0.0712891" x2="32.1602" y2="64.0713" gradientUnits="userSpaceOnUse">
<stop stop-color="#00D2D9"/>
<stop offset="1" stop-color="#A615FC"/>
</linearGradient>
<linearGradient id="paint3_linear" x1="32.1602" y1="0.0712891" x2="32.1602" y2="64.0713" gradientUnits="userSpaceOnUse">
<stop stop-color="#00D2D9"/>
<stop offset="1" stop-color="#A615FC"/>
</linearGradient>
<linearGradient id="paint4_linear" x1="32.1602" y1="0.0712891" x2="32.1602" y2="64.0713" gradientUnits="userSpaceOnUse">
<stop stop-color="#00D2D9"/>
<stop offset="1" stop-color="#A615FC"/>
</linearGradient>
<linearGradient id="paint5_linear" x1="32.1602" y1="0.0712891" x2="32.1602" y2="64.0713" gradientUnits="userSpaceOnUse">
<stop stop-color="#00D2D9"/>
<stop offset="1" stop-color="#A615FC"/>
</linearGradient>
<linearGradient id="paint6_linear" x1="32.1602" y1="0.0712891" x2="32.1602" y2="64.0713" gradientUnits="userSpaceOnUse">
<stop stop-color="#00D2D9"/>
<stop offset="1" stop-color="#A615FC"/>
</linearGradient>
</defs>
</svg>
