<svg width="62" height="63" viewBox="0 0 62 63" fill="none" xmlns="http://www.w3.org/2000/svg">
<path d="M57 0.781616H48C45.243 0.781616 43 3.02462 43 5.78162V13.3676L38.741 17.6266C37.705 16.7486 36.516 16.0516 35.223 15.5636C37.486 14.1486 39 11.6416 39 8.78162C39 4.37062 35.411 0.781616 31 0.781616C26.589 0.781616 23 4.37062 23 8.78162C23 11.6416 24.514 14.1486 26.777 15.5636C22.241 17.2776 19 21.6526 19 26.7816V33.7816C19 36.5386 21.243 38.7816 24 38.7816V42.3676L17.586 48.7816H5C2.243 48.7816 0 51.0246 0 53.7816V57.7816C0 60.5386 2.243 62.7816 5 62.7816H14C16.757 62.7816 19 60.5386 19 57.7816V50.1956L24 45.1956V58.7816C24 60.9876 25.794 62.7816 28 62.7816C29.2 62.7816 30.266 62.2396 31 61.3996C31.734 62.2396 32.8 62.7816 34 62.7816C36.206 62.7816 38 60.9876 38 58.7816V38.7816C40.757 38.7816 43 36.5386 43 33.7816V26.7816C43 23.8326 41.926 21.1326 40.155 19.0406L44.414 14.7816H57C59.757 14.7816 62 12.5386 62 9.78162V5.78162C62 3.02462 59.757 0.781616 57 0.781616ZM17 57.7816C17 59.4356 15.654 60.7816 14 60.7816H5C3.346 60.7816 2 59.4356 2 57.7816V53.7816C2 52.1276 3.346 50.7816 5 50.7816H17V57.7816ZM25 8.78162C25 5.47262 27.691 2.78162 31 2.78162C34.309 2.78162 37 5.47262 37 8.78162C37 12.0906 34.309 14.7816 31 14.7816C27.691 14.7816 25 12.0906 25 8.78162ZM41 33.7816C41 35.4356 39.654 36.7816 38 36.7816V23.7816H36V58.7816C36 59.8846 35.103 60.7816 34 60.7816C32.897 60.7816 32 59.8846 32 58.7816V34.7816H30V58.7816C30 59.8846 29.103 60.7816 28 60.7816C26.897 60.7816 26 59.8846 26 58.7816V23.7816H24V36.7816C22.346 36.7816 21 35.4356 21 33.7816V26.7816C21 21.2676 25.486 16.7816 31 16.7816C36.514 16.7816 41 21.2676 41 26.7816V33.7816ZM60 9.78162C60 11.4356 58.654 12.7816 57 12.7816H45V5.78162C45 4.12762 46.346 2.78162 48 2.78162H57C58.654 2.78162 60 4.12762 60 5.78162V9.78162Z" fill="url(#paint0_linear)"/>
<path d="M47 4.78162H58V6.78162H47V4.78162Z" fill="url(#paint1_linear)"/>
<path d="M56 8.78162H58V10.7816H56V8.78162Z" fill="url(#paint2_linear)"/>
<path d="M47 8.78162H54V10.7816H47V8.78162Z" fill="url(#paint3_linear)"/>
<path d="M4 56.7816H15V58.7816H4V56.7816Z" fill="url(#paint4_linear)"/>
<path d="M4 52.7816H6V54.7816H4V52.7816Z" fill="url(#paint5_linear)"/>
<path d="M8 52.7816H15V54.7816H8V52.7816Z" fill="url(#paint6_linear)"/>
<path d="M60 37.7816H58V54.7816H56V39.7816H54V54.7816H52V45.7816H50V54.7816H48V42.7816H46V54.7816H44V44.7816H42V54.7816H40V56.7816H62V54.7816H60V37.7816Z" fill="url(#paint7_linear)"/>
<path d="M60 58.7816H62V60.7816H60V58.7816Z" fill="url(#paint8_linear)"/>
<path d="M40 58.7816H58V60.7816H40V58.7816Z" fill="url(#paint9_linear)"/>
<path d="M11 22.7816C17.065 22.7816 22 17.8466 22 11.7816C22 5.71662 17.065 0.781616 11 0.781616C4.935 0.781616 0 5.71662 0 11.7816C0 17.8466 4.935 22.7816 11 22.7816ZM20 11.7816C20 13.4466 19.537 15.0016 18.746 16.3416L15.506 13.9116C15.814 13.2626 16 12.5456 16 11.7816C16 9.36762 14.279 7.34762 12 6.88262V2.84062C16.493 3.34062 20 7.15762 20 11.7816ZM11 8.78162C12.654 8.78162 14 10.1276 14 11.7816C14 13.4356 12.654 14.7816 11 14.7816C9.346 14.7816 8 13.4356 8 11.7816C8 10.1276 9.346 8.78162 11 8.78162ZM10 2.84062V6.88262C7.721 7.34762 6 9.36762 6 11.7816C6 14.5386 8.243 16.7816 11 16.7816C12.27 16.7816 13.418 16.2906 14.301 15.5076L17.545 17.9406C15.902 19.6846 13.579 20.7816 11 20.7816C6.038 20.7816 2 16.7436 2 11.7816C2 7.15762 5.507 3.34062 10 2.84062Z" fill="url(#paint10_linear)"/>
<defs>
<linearGradient id="paint0_linear" x1="31" y1="0.781616" x2="31" y2="62.7816" gradientUnits="userSpaceOnUse">
<stop stop-color="#00D2D9"/>
<stop offset="1" stop-color="#A615FC"/>
</linearGradient>
<linearGradient id="paint1_linear" x1="31" y1="0.781616" x2="31" y2="62.7816" gradientUnits="userSpaceOnUse">
<stop stop-color="#00D2D9"/>
<stop offset="1" stop-color="#A615FC"/>
</linearGradient>
<linearGradient id="paint2_linear" x1="31" y1="0.781616" x2="31" y2="62.7816" gradientUnits="userSpaceOnUse">
<stop stop-color="#00D2D9"/>
<stop offset="1" stop-color="#A615FC"/>
</linearGradient>
<linearGradient id="paint3_linear" x1="31" y1="0.781616" x2="31" y2="62.7816" gradientUnits="userSpaceOnUse">
<stop stop-color="#00D2D9"/>
<stop offset="1" stop-color="#A615FC"/>
</linearGradient>
<linearGradient id="paint4_linear" x1="31" y1="0.781616" x2="31" y2="62.7816" gradientUnits="userSpaceOnUse">
<stop stop-color="#00D2D9"/>
<stop offset="1" stop-color="#A615FC"/>
</linearGradient>
<linearGradient id="paint5_linear" x1="31" y1="0.781616" x2="31" y2="62.7816" gradientUnits="userSpaceOnUse">
<stop stop-color="#00D2D9"/>
<stop offset="1" stop-color="#A615FC"/>
</linearGradient>
<linearGradient id="paint6_linear" x1="31" y1="0.781616" x2="31" y2="62.7816" gradientUnits="userSpaceOnUse">
<stop stop-color="#00D2D9"/>
<stop offset="1" stop-color="#A615FC"/>
</linearGradient>
<linearGradient id="paint7_linear" x1="31" y1="0.781616" x2="31" y2="62.7816" gradientUnits="userSpaceOnUse">
<stop stop-color="#00D2D9"/>
<stop offset="1" stop-color="#A615FC"/>
</linearGradient>
<linearGradient id="paint8_linear" x1="31" y1="0.781616" x2="31" y2="62.7816" gradientUnits="userSpaceOnUse">
<stop stop-color="#00D2D9"/>
<stop offset="1" stop-color="#A615FC"/>
</linearGradient>
<linearGradient id="paint9_linear" x1="31" y1="0.781616" x2="31" y2="62.7816" gradientUnits="userSpaceOnUse">
<stop stop-color="#00D2D9"/>
<stop offset="1" stop-color="#A615FC"/>
</linearGradient>
<linearGradient id="paint10_linear" x1="31" y1="0.781616" x2="31" y2="62.7816" gradientUnits="userSpaceOnUse">
<stop stop-color="#00D2D9"/>
<stop offset="1" stop-color="#A615FC"/>
</linearGradient>
</defs>
</svg>
