<svg width="16" height="19" viewBox="0 0 16 19" fill="none" xmlns="http://www.w3.org/2000/svg">
<g clip-path="url(#clip0)">
<path d="M2.62662 18.2048H15.3532V16.6931H2.62662C2.11099 16.6931 1.85318 16.447 1.85318 15.9548C1.85318 15.4626 2.11099 15.2166 2.62662 15.2166H15.3532V0.204834H2.62662C1.97037 0.204834 1.4313 0.421631 1.00943 0.855225C0.587555 1.28882 0.376617 1.82202 0.376617 2.45483V15.2166H0.517242C0.423492 15.4978 0.376617 15.7439 0.376617 15.9548C0.376617 16.5876 0.587555 17.1208 1.00943 17.5544C1.4313 17.988 1.97037 18.2048 2.62662 18.2048ZM1.85318 2.45483C1.85318 1.96265 2.11099 1.71655 2.62662 1.71655H13.8766V13.7048H2.62662C2.43912 13.7048 2.1813 13.7517 1.85318 13.8455V2.45483ZM4.87662 6.21655H11.6266V7.69312H4.87662V6.21655ZM4.87662 3.19312H11.6266V4.70483H4.87662V3.19312Z" fill="#5E5E5E"/>
</g>
<defs>
<clipPath id="clip0">
<rect x="0.268066" y="0.204834" width="15.1936" height="18" fill="white"/>
</clipPath>
</defs>
</svg>
