<svg width="62" height="64" viewBox="0 0 62 64" fill="none" xmlns="http://www.w3.org/2000/svg">
<path d="M57.6667 60.8C57.6667 61.3891 57.1891 61.8667 56.6 61.8667H45.9333V58.2188C45.9229 54.8552 43.6745 51.9099 40.4323 51.0135L34.2 49.3182V47.7036C36.1979 46.3125 37.3922 44.0344 37.4 41.6V39.5807C37.6719 39.4563 37.8438 39.3677 37.8766 39.3547C38.2385 39.174 38.4667 38.8042 38.4667 38.4V32L44.1828 29.8016C44.5958 29.6438 44.8688 29.2474 44.8688 28.8052C44.8688 28.363 44.5958 27.9672 44.1828 27.8089L30.3161 22.4755C30.0698 22.3818 29.7969 22.3818 29.5505 22.4755L15.6839 27.8089C15.2734 27.9667 15.0021 28.3604 15 28.8V33.6917L12.1125 36.5792L13.6208 38.0875L15 36.7083V38.4H17.1333V36.7083L18.5125 38.0875L20.0208 36.5792L17.1333 33.6917V30.3531L21.4 32V38.4C21.3979 38.8063 21.6266 39.1786 21.9901 39.3599C22.0229 39.376 22.1948 39.4615 22.4667 39.5859V41.6C22.4479 44.0417 23.6479 46.3323 25.6667 47.7068V49.3182L19.4307 51.0146C16.1906 51.9115 13.9432 54.8563 13.9333 58.2188V61.8667H3.26667C2.6776 61.8667 2.2 61.3891 2.2 60.8V19.2H32.0667V17.0667H2.2V11.7333C2.2 11.1443 2.6776 10.6667 3.26667 10.6667H32.0667V8.53333H3.26667C1.49948 8.53333 0.0666656 9.96615 0.0666656 11.7333V60.8C0.0666656 62.5672 1.49948 64 3.26667 64H56.6C58.3672 64 59.8 62.5672 59.8 60.8V21.3333H57.6667V60.8ZM27.8 50.1333V48.7469C29.1901 49.1745 30.6766 49.1745 32.0667 48.7469V50.1333C32.0703 50.4391 32.2057 50.7281 32.4391 50.926L29.9333 53.0135L27.4276 50.9271C27.6609 50.7292 27.7969 50.4396 27.8 50.1333ZM29.9333 24.6089L40.8281 28.8L29.9333 32.9911L19.0385 28.8L29.9333 24.6089ZM29.5505 35.1297C29.7969 35.2234 30.0698 35.2234 30.3161 35.1297L36.3333 32.8151V37.7214C34.324 38.688 32.1552 39.2797 29.9333 39.4667C27.7115 39.2781 25.5427 38.6865 23.5333 37.7203V32.8141L29.5505 35.1297ZM24.6 41.6V40.4552C26.3026 41.1276 28.1047 41.5146 29.9333 41.6C31.762 41.5146 33.5641 41.1276 35.2667 40.4552V41.6C35.2641 43.5057 34.2448 45.2656 32.5927 46.2161C30.9406 47.1667 28.9068 47.163 27.2583 46.2068C26.8557 45.9781 26.487 45.6948 26.1615 45.3651C25.1562 44.3714 24.5932 43.0141 24.6 41.6ZM16.0667 58.2188C16.0745 55.8167 17.6802 53.713 19.9953 53.0719L25.0266 51.7036L29.2505 55.2234C29.6464 55.5531 30.2203 55.5531 30.6161 55.2234L34.8401 51.7036L39.8682 53.0708C42.1844 53.7115 43.7911 55.8156 43.8 58.2188V61.8667H40.6V57.6H38.4667V61.8667H21.4V57.6H19.2667V61.8667H16.0667V58.2188Z" fill="url(#paint0_linear)"/>
<path d="M6.46667 12.8H8.6V14.9333H6.46667V12.8Z" fill="url(#paint1_linear)"/>
<path d="M10.7333 12.8H12.8667V14.9333H10.7333V12.8Z" fill="url(#paint2_linear)"/>
<path d="M15 12.8H17.1333V14.9333H15V12.8Z" fill="url(#paint3_linear)"/>
<path d="M58.7333 0H37.4C35.6328 0 34.2 1.43281 34.2 3.2V16C34.2 17.7672 35.6328 19.2 37.4 19.2H40.6V23.4667C40.6 23.9198 40.8859 24.3234 41.3135 24.4734C41.4271 24.5125 41.5464 24.5328 41.6667 24.5333C41.9906 24.5333 42.2974 24.3865 42.4995 24.1333L46.4453 19.2H58.7333C60.5005 19.2 61.9333 17.7672 61.9333 16V3.2C61.9333 1.43281 60.5005 0 58.7333 0ZM59.8 16C59.8 16.5891 59.3224 17.0667 58.7333 17.0667H45.9333C45.6094 17.0667 45.3026 17.2135 45.1005 17.4667L42.7333 20.4255V18.1333C42.7333 17.5443 42.2557 17.0667 41.6667 17.0667H37.4C36.8109 17.0667 36.3333 16.5891 36.3333 16V3.2C36.3333 2.61094 36.8109 2.13333 37.4 2.13333H58.7333C59.3224 2.13333 59.8 2.61094 59.8 3.2V16Z" fill="url(#paint4_linear)"/>
<path d="M40.6 4.26667H55.5333V6.4H40.6V4.26667Z" fill="url(#paint5_linear)"/>
<path d="M40.6 8.53333H55.5333V10.6667H40.6V8.53333Z" fill="url(#paint6_linear)"/>
<path d="M40.6 12.8H55.5333V14.9333H40.6V12.8Z" fill="url(#paint7_linear)"/>
<defs>
<linearGradient id="paint0_linear" x1="48.8022" y1="64" x2="48.8022" y2="5.59535e-09" gradientUnits="userSpaceOnUse">
<stop stop-color="#A615FC"/>
<stop offset="1" stop-color="#00D2D9"/>
</linearGradient>
<linearGradient id="paint1_linear" x1="48.8022" y1="64" x2="48.8022" y2="5.59535e-09" gradientUnits="userSpaceOnUse">
<stop stop-color="#A615FC"/>
<stop offset="1" stop-color="#00D2D9"/>
</linearGradient>
<linearGradient id="paint2_linear" x1="48.8022" y1="64" x2="48.8022" y2="5.59535e-09" gradientUnits="userSpaceOnUse">
<stop stop-color="#A615FC"/>
<stop offset="1" stop-color="#00D2D9"/>
</linearGradient>
<linearGradient id="paint3_linear" x1="48.8022" y1="64" x2="48.8022" y2="5.59535e-09" gradientUnits="userSpaceOnUse">
<stop stop-color="#A615FC"/>
<stop offset="1" stop-color="#00D2D9"/>
</linearGradient>
<linearGradient id="paint4_linear" x1="48.8022" y1="64" x2="48.8022" y2="5.59535e-09" gradientUnits="userSpaceOnUse">
<stop stop-color="#A615FC"/>
<stop offset="1" stop-color="#00D2D9"/>
</linearGradient>
<linearGradient id="paint5_linear" x1="48.8022" y1="64" x2="48.8022" y2="5.59535e-09" gradientUnits="userSpaceOnUse">
<stop stop-color="#A615FC"/>
<stop offset="1" stop-color="#00D2D9"/>
</linearGradient>
<linearGradient id="paint6_linear" x1="48.8022" y1="64" x2="48.8022" y2="5.59535e-09" gradientUnits="userSpaceOnUse">
<stop stop-color="#A615FC"/>
<stop offset="1" stop-color="#00D2D9"/>
</linearGradient>
<linearGradient id="paint7_linear" x1="48.8022" y1="64" x2="48.8022" y2="5.59535e-09" gradientUnits="userSpaceOnUse">
<stop stop-color="#A615FC"/>
<stop offset="1" stop-color="#00D2D9"/>
</linearGradient>
</defs>
</svg>
