<svg width="61" height="65" viewBox="0 0 61 65" fill="none" xmlns="http://www.w3.org/2000/svg">
<path d="M34.2874 46.1946H19.9264C19.2313 46.1946 18.6678 46.7582 18.6678 47.4534C18.6678 48.1487 19.2313 48.7123 19.9264 48.7123H34.2874C34.9825 48.7123 35.546 48.1487 35.546 47.4534C35.5461 46.7582 34.9825 46.1946 34.2874 46.1946Z" fill="url(#paint0_linear)"/>
<path d="M13.2104 53.9073C13.2104 54.6026 13.7739 55.1662 14.469 55.1662H21.4955C22.1906 55.1662 22.7541 54.6026 22.7541 53.9073C22.7541 53.2121 22.1906 52.6484 21.4955 52.6484H14.469C13.7739 52.6484 13.2104 53.2121 13.2104 53.9073Z" fill="url(#paint1_linear)"/>
<path d="M31.4604 53.9073C31.4604 54.6026 32.0241 55.1662 32.7191 55.1662H39.7456C40.4407 55.1662 41.0042 54.6026 41.0042 53.9073C41.0042 53.2121 40.4406 52.6484 39.7456 52.6484H32.7191C32.0241 52.6484 31.4604 53.2121 31.4604 53.9073Z" fill="url(#paint2_linear)"/>
<path d="M27.0942 52.6484C26.399 52.6484 25.8355 53.2121 25.8355 53.9073C25.8355 54.6026 26.399 55.1662 27.0942 55.1662H27.1189C27.814 55.1662 28.3775 54.6026 28.3775 53.9073C28.3775 53.2121 27.814 52.6484 27.1189 52.6484H27.0942Z" fill="url(#paint3_linear)"/>
<path d="M1.54573 20.8882C2.24086 20.8882 2.80436 20.3246 2.80436 19.6293V19.6044C2.80436 18.9092 2.24086 18.3456 1.54573 18.3456C0.85061 18.3456 0.287109 18.9092 0.287109 19.6044V19.6293C0.287109 20.3246 0.85061 20.8882 1.54573 20.8882Z" fill="url(#paint4_linear)"/>
<path d="M58.8705 49.7334L53.215 44.078V12.2012C53.215 12.1609 53.2127 12.1209 53.2089 12.081C53.2072 12.0643 53.2044 12.0479 53.2022 12.0314C53.1992 12.009 53.1962 11.9868 53.1921 11.9647C53.1882 11.9447 53.1834 11.925 53.1786 11.9054C53.1742 11.8874 53.1699 11.8694 53.1647 11.8517C53.1587 11.8309 53.152 11.8105 53.1449 11.7902C53.1392 11.7739 53.1334 11.7577 53.1271 11.7415C53.1192 11.7214 53.1109 11.7015 53.1019 11.6819C53.0946 11.6659 53.0869 11.65 53.079 11.6343C53.0696 11.6158 53.06 11.5973 53.0497 11.5793C53.0404 11.5628 53.0304 11.5468 53.0202 11.5307C53.0099 11.5143 52.9997 11.4979 52.9886 11.482C52.9766 11.4649 52.9639 11.4483 52.951 11.4317C52.9402 11.4178 52.9297 11.4038 52.9185 11.3903C52.9154 11.3865 52.9127 11.3827 52.9096 11.3789L43.5386 0.508164C43.5306 0.498914 43.5215 0.490789 43.5132 0.481789C43.4952 0.462164 43.4771 0.442664 43.4579 0.424164C43.445 0.411789 43.4317 0.400039 43.4184 0.388289C43.3992 0.371414 43.3799 0.354914 43.3597 0.339164C43.346 0.328414 43.332 0.318039 43.3179 0.307789C43.2964 0.292414 43.2744 0.277789 43.252 0.263664C43.2384 0.255164 43.2247 0.246664 43.2109 0.238664C43.1861 0.224539 43.1607 0.211414 43.135 0.198914C43.1222 0.192789 43.1099 0.186289 43.097 0.180539C43.0686 0.167914 43.0396 0.156789 43.0102 0.146289C42.9989 0.142164 42.9879 0.137664 42.9765 0.133914C42.945 0.123664 42.9127 0.115164 42.8802 0.107289C42.8701 0.104789 42.8601 0.101664 42.85 0.0995391C42.8159 0.0921641 42.781 0.0869141 42.7459 0.0825391C42.7369 0.0814141 42.728 0.0794141 42.719 0.0784141C42.675 0.0739141 42.6305 0.0712891 42.5854 0.0712891H5.91598C2.81223 0.0712891 0.287109 2.59841 0.287109 5.70479V13.9935C0.287109 14.6888 0.85061 15.2524 1.54573 15.2524C2.24086 15.2524 2.80436 14.6888 2.80436 13.9935V5.70479C2.80436 3.98666 4.20023 2.58904 5.91598 2.58904H41.3267V10.7029C41.3267 12.2233 42.565 13.4602 44.087 13.4602H50.6976V41.5608L47.9327 38.7959C47.9259 38.7887 47.9199 38.7809 47.9129 38.7739C47.9057 38.7668 47.898 38.7608 47.8907 38.7539L41.9559 32.8192C43.1701 30.5003 43.8582 27.8643 43.8582 25.0702C43.8582 15.8328 36.3445 8.31766 27.1087 8.31766C17.8711 8.31766 10.3559 15.8328 10.3559 25.0702C10.3559 29.4793 12.0682 33.4953 14.8616 36.4902C14.9191 36.567 14.9856 36.6374 15.0605 36.7002C18.1091 39.8585 22.3832 41.8263 27.1089 41.8263C29.9014 41.8263 32.5357 41.1382 34.8532 39.924L40.786 45.859C40.7931 45.8665 40.7992 45.8745 40.8066 45.8818C40.8139 45.889 40.8219 45.8952 40.8292 45.9023L50.6977 55.7747V58.4379C50.6977 60.156 49.3019 61.5537 47.5861 61.5537H5.91598C4.20023 61.5537 2.80436 60.1559 2.80436 58.4379V25.2154C2.80436 24.5202 2.24086 23.9565 1.54573 23.9565C0.85061 23.9565 0.287109 24.5202 0.287109 25.2154V58.4378C0.287109 61.5442 2.81223 64.0713 5.91598 64.0713H47.5861C50.6899 64.0713 53.215 61.5442 53.215 58.4378V57.916C53.9047 58.2695 54.6045 58.4267 55.2806 58.4267C56.6192 58.4265 57.8652 57.8165 58.7561 56.9249C60.5262 55.1537 61.1679 52.0313 58.8705 49.7334ZM43.8441 10.7029V4.71816L49.2094 10.9424H44.0871C43.9554 10.9424 43.8441 10.8327 43.8441 10.7029ZM27.1087 10.8353C34.9564 10.8353 41.3409 17.221 41.3409 25.07C41.3409 27.671 40.6395 30.1112 39.417 32.2118C39.3281 32.317 39.2589 32.4332 39.21 32.5557C38.9622 32.9549 38.6954 33.3412 38.4106 33.7129C36.9142 30.9449 34.4751 28.8327 31.5882 27.7232C33.2936 26.3519 34.3881 24.25 34.3881 21.8962C34.3881 17.7723 31.0352 14.4172 26.914 14.4172C22.7909 14.4172 19.4364 17.7722 19.4364 21.8962C19.4364 24.2475 20.529 26.3477 22.2322 27.719C21.2406 28.0998 20.2929 28.6017 19.4084 29.223C17.8257 30.335 16.5272 31.762 15.5799 33.4124C13.8781 31.0663 12.873 28.1835 12.873 25.0699C12.873 17.221 19.2591 10.8353 27.1087 10.8353ZM21.9535 21.8963C21.9535 19.1607 24.1787 16.935 26.9139 16.935C29.6471 16.935 31.8707 19.1607 31.8707 21.8963C31.8707 24.63 29.6472 26.854 26.9139 26.854C24.1787 26.854 21.9535 24.6299 21.9535 21.8963ZM17.361 35.4367C19.0846 31.7782 22.8266 29.3717 26.9139 29.3717C31.1202 29.3717 34.9069 31.8798 36.5772 35.6903C35.961 36.2408 35.2966 36.7385 34.5915 37.1764C34.4675 37.2257 34.35 37.2958 34.2436 37.3859C32.1446 38.6077 29.707 39.3084 27.1086 39.3084C23.3405 39.3084 19.9101 37.8359 17.361 35.4367ZM38.8305 37.0265C38.917 36.9599 38.9935 36.883 39.0589 36.7982C39.6079 36.2384 40.1181 35.6407 40.585 35.0088L45.2416 39.6653L41.6975 43.2102L37.042 38.5528C37.6736 38.0858 38.2711 37.5755 38.8305 37.0265ZM56.9757 55.1449C56.1672 55.954 54.841 56.3568 53.544 55.061L43.4772 44.9904L47.0217 41.4453L51.043 45.4665C51.0589 45.4832 51.075 45.4994 51.0917 45.5153L57.0905 51.5139C58.3799 52.8035 57.7284 54.3919 56.9757 55.1449Z" fill="url(#paint5_linear)"/>
<defs>
<linearGradient id="paint0_linear" x1="30.3194" y1="0.0712891" x2="30.3194" y2="64.0713" gradientUnits="userSpaceOnUse">
<stop stop-color="#00D2D9"/>
<stop offset="1" stop-color="#A615FC"/>
</linearGradient>
<linearGradient id="paint1_linear" x1="30.3194" y1="0.0712891" x2="30.3194" y2="64.0713" gradientUnits="userSpaceOnUse">
<stop stop-color="#00D2D9"/>
<stop offset="1" stop-color="#A615FC"/>
</linearGradient>
<linearGradient id="paint2_linear" x1="30.3194" y1="0.0712891" x2="30.3194" y2="64.0713" gradientUnits="userSpaceOnUse">
<stop stop-color="#00D2D9"/>
<stop offset="1" stop-color="#A615FC"/>
</linearGradient>
<linearGradient id="paint3_linear" x1="30.3194" y1="0.0712891" x2="30.3194" y2="64.0713" gradientUnits="userSpaceOnUse">
<stop stop-color="#00D2D9"/>
<stop offset="1" stop-color="#A615FC"/>
</linearGradient>
<linearGradient id="paint4_linear" x1="30.3194" y1="0.0712891" x2="30.3194" y2="64.0713" gradientUnits="userSpaceOnUse">
<stop stop-color="#00D2D9"/>
<stop offset="1" stop-color="#A615FC"/>
</linearGradient>
<linearGradient id="paint5_linear" x1="30.3194" y1="0.0712891" x2="30.3194" y2="64.0713" gradientUnits="userSpaceOnUse">
<stop stop-color="#00D2D9"/>
<stop offset="1" stop-color="#A615FC"/>
</linearGradient>
</defs>
</svg>
