<svg width="64" height="65" viewBox="0 0 64 65" fill="none" xmlns="http://www.w3.org/2000/svg">
<path d="M8.25806 9.66288V9.63604C9.504 8.69359 10.3226 7.21333 10.3226 5.53385C10.3226 2.68791 8.00723 0.372559 5.16129 0.372559C2.31535 0.372559 0 2.68791 0 5.53385C0 7.21333 0.818581 8.69359 2.06452 9.63604V64.3726H4.12903V10.5909C4.46245 10.659 4.80826 10.6951 5.16129 10.6951C5.51432 10.6951 5.86013 10.659 6.19355 10.5909V64.3726H8.25806V55.0822H64V9.66288H8.25806ZM40.2581 11.7274H56.3892L40.2581 22.212V11.7274ZM29.9355 11.7274V22.212L13.8044 11.7274H29.9355ZM10.017 11.7274L29.9355 24.675V27.2113H28.1765L8.25806 14.2637V11.7274H10.017ZM24.3892 27.2113H8.25806V16.7266L24.3892 27.2113ZM5.16129 8.63062C3.45394 8.63062 2.06452 7.2412 2.06452 5.53385C2.06452 3.82649 3.45394 2.43707 5.16129 2.43707C6.86864 2.43707 8.25806 3.82649 8.25806 5.53385C8.25806 7.2412 6.86864 8.63062 5.16129 8.63062ZM29.9355 53.0177H13.8054L29.9355 42.5331V53.0177ZM29.9355 40.0701L10.016 53.0177H8.25806V50.4815L10.8852 48.7741L9.76 47.042L8.25806 48.0185V37.5338H24.3881L11.5221 45.8972L12.6472 47.6293L28.1775 37.5338H29.9355V40.0701ZM40.2581 53.0177V42.5331L56.3881 53.0177H40.2581ZM61.9355 53.0177H60.1775L40.2581 40.0701V37.5338H42.016L61.9355 50.4815V53.0177ZM61.9355 35.4693H59.871V37.5338H61.9355V48.0185L45.8054 37.5338H57.8064V35.4693H38.1935V53.0177H32V35.4693H8.25806V29.2758H32V11.7274H38.1935V29.2758H61.9355V35.4693ZM61.9355 27.2113H45.8044L61.9355 16.7266V27.2113ZM61.9355 14.2637L42.017 27.2113H40.2581V24.675L60.1765 11.7274H61.9355V14.2637Z" fill="url(#paint0_linear)"/>
<defs>
<linearGradient id="paint0_linear" x1="32" y1="0.372559" x2="32" y2="64.3726" gradientUnits="userSpaceOnUse">
<stop stop-color="#00D2D9"/>
<stop offset="1" stop-color="#A615FC"/>
</linearGradient>
</defs>
</svg>
