<svg width="64" height="64" viewBox="0 0 64 64" fill="none" xmlns="http://www.w3.org/2000/svg">
<path d="M64 24.7742V15.4839C64 12.6381 61.6845 10.3226 58.8387 10.3226H29.5575C29.38 9.9501 29.191 9.58014 28.9808 9.22228L30.1799 6.82409L26.2092 2.85232L23.811 4.05141C22.6663 3.37853 21.4461 2.87046 20.1724 2.53831L19.3251 0H13.7082L12.8619 2.53831C11.5882 2.87046 10.3679 3.37752 9.22329 4.05141L6.82308 2.85232L2.85232 6.82308L4.05141 9.22127C3.37853 10.3659 2.87046 11.5862 2.53831 12.8599L0 13.7072V19.3241L2.53831 20.1704C2.87046 21.4441 3.37752 22.6643 4.05141 23.809L2.85232 26.2092L6.82409 30.1809L9.22228 28.9819C10.4259 29.69 11.7122 30.2132 13.058 30.5454L14.4516 32.4168V53.6774H2.06452V58.8387C2.06452 61.6845 4.38004 64 7.22581 64H50.5806C53.4264 64 55.7419 61.6845 55.7419 58.8387V51.6129H64V26.8387H55.7419V24.7742H64ZM61.9355 15.4839V22.7097H55.7419V15.4839C55.7419 13.7767 57.1315 12.3871 58.8387 12.3871C60.5459 12.3871 61.9355 13.7767 61.9355 15.4839ZM14.2566 28.6976L13.8795 28.6154C12.4441 28.3034 11.0822 27.7369 9.83216 26.9335L9.3377 26.6149L7.23085 27.6688L5.36341 25.8014L6.41734 23.6946L6.09879 23.2001C5.29536 21.9501 4.72883 20.5882 4.41683 19.1527L4.29234 18.5786L2.06452 17.8362V15.1951L4.29234 14.4516L4.41683 13.8775C4.72883 12.442 5.29536 11.0801 6.09879 9.83014L6.41734 9.33568L5.36341 7.23085L7.23085 5.36341L9.3377 6.41734L9.83216 6.09879C11.0822 5.29536 12.4441 4.72883 13.8795 4.41683L14.4536 4.29234L15.1961 2.06452H17.8372L18.5806 4.29234L19.1547 4.41683C20.5902 4.72883 21.9521 5.29536 23.2021 6.09879L23.6966 6.41734L25.8034 5.36341L27.6709 7.23085L26.6169 9.3377L26.936 9.83216C27.0388 9.99244 27.1265 10.1593 27.2218 10.3236H24.7525C22.8034 7.73589 19.7717 6.19355 16.5161 6.19355C10.8241 6.19355 6.19355 10.8241 6.19355 16.5161C6.19355 21.4728 9.68447 25.6673 14.4516 26.631V28.9612L14.2566 28.6976ZM14.4516 15.4839V20.0847C13.2077 19.3609 12.3871 18.0161 12.3871 16.5161C12.3871 14.6447 13.6467 13.0776 15.3569 12.5731C14.7873 13.4027 14.4516 14.4042 14.4516 15.4839ZM18.1502 10.56C17.6184 10.4143 17.0726 10.3226 16.5161 10.3226C13.1003 10.3226 10.3226 13.1003 10.3226 16.5161C10.3226 19.1578 12.0186 21.4763 14.4516 22.3402V24.506C10.8523 23.5842 8.25806 20.3357 8.25806 16.5161C8.25806 11.9627 11.9627 8.25806 16.5161 8.25806C18.5519 8.25806 20.4819 9.00857 21.9738 10.3226H19.6129C19.1008 10.3226 18.6169 10.4209 18.1502 10.56ZM7.22581 61.9355C5.51865 61.9355 4.12903 60.5459 4.12903 58.8387V55.7419H45.4194V58.8387C45.4194 60 45.8044 61.0726 46.4536 61.9355H7.22581ZM33.0323 49.5484V33.0323H61.9355V49.5484H33.0323ZM61.9355 30.9677H33.0323V28.9032H61.9355V30.9677ZM30.9677 26.8387V51.6129H53.6774V58.8387C53.6774 60.5459 52.2878 61.9355 50.5806 61.9355C48.8735 61.9355 47.4839 60.5459 47.4839 58.8387V53.6774H16.5161V15.4839C16.5161 13.7767 17.9057 12.3871 19.6129 12.3871H54.7364C54.0811 13.252 53.6774 14.3175 53.6774 15.4839V26.8387H30.9677Z" fill="url(#paint0_linear)"/>
<path d="M43.6573 36.4314L38.7984 41.2903L43.6573 46.1492L45.1169 44.6895L41.7177 41.2903L45.1169 37.8911L43.6573 36.4314Z" fill="url(#paint1_linear)"/>
<path d="M49.8508 37.8911L53.25 41.2903L49.8508 44.6895L51.3105 46.1492L56.1694 41.2903L51.3105 36.4314L49.8508 37.8911Z" fill="url(#paint2_linear)"/>
<path d="M45.434 47.3175L47.495 34.9299L49.5312 35.2687L47.4708 47.6568L45.434 47.3175Z" fill="url(#paint3_linear)"/>
<path d="M18.5806 14.4516H20.6452V16.5161H18.5806V14.4516Z" fill="url(#paint4_linear)"/>
<path d="M22.7097 14.4516H51.6129V16.5161H22.7097V14.4516Z" fill="url(#paint5_linear)"/>
<path d="M18.5806 18.5806H51.6129V20.6452H18.5806V18.5806Z" fill="url(#paint6_linear)"/>
<path d="M18.5806 22.7097H30.9677V24.7742H18.5806V22.7097Z" fill="url(#paint7_linear)"/>
<path d="M33.0323 22.7097H51.6129V24.7742H33.0323V22.7097Z" fill="url(#paint8_linear)"/>
<path d="M18.5806 26.8387H28.9032V28.9032H18.5806V26.8387Z" fill="url(#paint9_linear)"/>
<path d="M18.5806 30.9677H28.9032V33.0323H18.5806V30.9677Z" fill="url(#paint10_linear)"/>
<path d="M18.5806 35.0968H28.9032V37.1613H18.5806V35.0968Z" fill="url(#paint11_linear)"/>
<defs>
<linearGradient id="paint0_linear" x1="32" y1="0" x2="32" y2="64" gradientUnits="userSpaceOnUse">
<stop stop-color="#00D2D9"/>
<stop offset="1" stop-color="#A615FC"/>
</linearGradient>
<linearGradient id="paint1_linear" x1="32" y1="0" x2="32" y2="64" gradientUnits="userSpaceOnUse">
<stop stop-color="#00D2D9"/>
<stop offset="1" stop-color="#A615FC"/>
</linearGradient>
<linearGradient id="paint2_linear" x1="32" y1="0" x2="32" y2="64" gradientUnits="userSpaceOnUse">
<stop stop-color="#00D2D9"/>
<stop offset="1" stop-color="#A615FC"/>
</linearGradient>
<linearGradient id="paint3_linear" x1="32" y1="0" x2="32" y2="64" gradientUnits="userSpaceOnUse">
<stop stop-color="#00D2D9"/>
<stop offset="1" stop-color="#A615FC"/>
</linearGradient>
<linearGradient id="paint4_linear" x1="32" y1="0" x2="32" y2="64" gradientUnits="userSpaceOnUse">
<stop stop-color="#00D2D9"/>
<stop offset="1" stop-color="#A615FC"/>
</linearGradient>
<linearGradient id="paint5_linear" x1="32" y1="0" x2="32" y2="64" gradientUnits="userSpaceOnUse">
<stop stop-color="#00D2D9"/>
<stop offset="1" stop-color="#A615FC"/>
</linearGradient>
<linearGradient id="paint6_linear" x1="32" y1="0" x2="32" y2="64" gradientUnits="userSpaceOnUse">
<stop stop-color="#00D2D9"/>
<stop offset="1" stop-color="#A615FC"/>
</linearGradient>
<linearGradient id="paint7_linear" x1="32" y1="0" x2="32" y2="64" gradientUnits="userSpaceOnUse">
<stop stop-color="#00D2D9"/>
<stop offset="1" stop-color="#A615FC"/>
</linearGradient>
<linearGradient id="paint8_linear" x1="32" y1="0" x2="32" y2="64" gradientUnits="userSpaceOnUse">
<stop stop-color="#00D2D9"/>
<stop offset="1" stop-color="#A615FC"/>
</linearGradient>
<linearGradient id="paint9_linear" x1="32" y1="0" x2="32" y2="64" gradientUnits="userSpaceOnUse">
<stop stop-color="#00D2D9"/>
<stop offset="1" stop-color="#A615FC"/>
</linearGradient>
<linearGradient id="paint10_linear" x1="32" y1="0" x2="32" y2="64" gradientUnits="userSpaceOnUse">
<stop stop-color="#00D2D9"/>
<stop offset="1" stop-color="#A615FC"/>
</linearGradient>
<linearGradient id="paint11_linear" x1="32" y1="0" x2="32" y2="64" gradientUnits="userSpaceOnUse">
<stop stop-color="#00D2D9"/>
<stop offset="1" stop-color="#A615FC"/>
</linearGradient>
</defs>
</svg>
