<svg width="64" height="65" viewBox="0 0 64 65" fill="none" xmlns="http://www.w3.org/2000/svg">
<path d="M33.5827 30.7914C33.094 30.3027 32.3027 30.3027 31.814 30.7914C31.3265 31.2789 31.3265 32.0702 31.814 32.5589C32.3027 33.0464 33.094 33.0464 33.5827 32.5589C34.0702 32.0702 34.0702 31.2789 33.5827 30.7914Z" fill="url(#paint0_linear)"/>
<path d="M49.4915 14.8812C47.049 12.4389 43.095 12.4388 40.6524 14.8812C38.2163 17.3174 38.2162 21.2824 40.6528 23.7205C43.0898 26.156 47.0548 26.157 49.4915 23.7202C51.9338 21.278 51.9343 17.3239 49.4915 14.8812ZM47.7238 21.9524C46.2621 23.4141 43.8829 23.4141 42.4205 21.9526C40.9587 20.4899 40.9585 18.1106 42.4203 16.649C43.8856 15.1836 46.2581 15.1834 47.7238 16.649C49.1891 18.1142 49.1894 20.4869 47.7238 21.9524Z" fill="url(#paint1_linear)"/>
<path d="M63.6336 0.738695C63.3881 0.493321 63.0531 0.360321 62.7049 0.373446C62.4223 0.383571 55.6929 0.65407 47.6935 3.48144C41.2836 5.74469 35.9407 8.98505 31.8133 13.1125C30.8884 14.0374 29.9884 15.0182 29.1273 16.037C25.0463 13.6348 21.7761 14.388 19.7087 15.4944C14.9486 18.0419 12.0022 24.9589 12.0022 29.9064C12.0026 30.4119 12.3072 30.8678 12.7742 31.0611C12.9289 31.1253 13.0914 31.1564 13.2524 31.1564C13.5777 31.1564 13.8974 31.0293 14.1365 30.7903C16.6468 28.2799 19.7432 28.4369 20.7547 28.5699L21.1925 29.0076C20.331 31.0576 19.637 33.0961 19.128 35.0788C18.9442 35.7963 19.0062 36.5555 19.2793 37.25C18.0758 37.8046 16.9147 38.619 15.9037 39.63C12.6861 42.8477 12.0327 50.6895 12.0065 51.0217C11.9777 51.3863 12.11 51.7453 12.3686 52.004C12.604 52.2392 12.9224 52.3701 13.2524 52.3701C13.2851 52.3701 13.318 52.3688 13.3509 52.3662C13.6831 52.3401 21.5251 51.6867 24.7427 48.4691C25.7533 47.4585 26.5676 46.2975 27.1222 45.0942C27.8574 45.3834 28.6142 45.419 29.2947 45.2446C31.2764 44.7357 33.3147 44.042 35.3649 43.1804L35.8027 43.6181C35.9356 44.6297 36.0926 47.7261 33.5823 50.2362C33.2249 50.5937 33.1179 51.1313 33.3114 51.5983C33.5048 52.0655 33.9606 52.37 34.4662 52.37C39.4137 52.37 46.3305 49.4236 48.878 44.6635C49.9844 42.5964 50.7377 39.3261 48.3354 35.245C49.3538 34.3843 50.3347 33.4843 51.2599 32.559C55.3874 28.4315 58.6276 23.0887 60.8909 16.6792C63.7184 8.67943 63.9888 1.94994 63.9989 1.66744C64.0114 1.32057 63.879 0.984195 63.6336 0.738695ZM14.797 27.2178C15.5735 23.4599 17.8288 19.3363 20.8888 17.6985C22.9337 16.6043 25.1688 16.7115 27.5453 18.0124C25.5207 20.6752 23.7606 23.5439 22.2935 26.5733C22.2748 26.5618 22.0498 26.2789 21.6318 26.1846C21.46 26.1458 18.1526 25.4344 14.797 27.2178ZM22.975 46.7012C21.2562 48.42 17.2243 49.3265 14.676 49.6966C15.0462 47.1481 15.9528 43.1164 17.6715 41.3977C18.634 40.4352 19.75 39.7055 20.8717 39.2945L25.0782 43.501C24.6672 44.6227 23.9376 45.7387 22.975 46.7012ZM28.6737 42.8229C28.3119 42.9155 27.8929 42.7795 27.5814 42.4685C25.9643 40.8514 25.3317 40.2187 25.1332 40.0204C24.7692 39.6564 23.8766 38.7637 21.905 36.792C21.5932 36.4796 21.4572 36.0608 21.5496 35.6996C21.95 34.1404 22.4736 32.5406 23.1103 30.9255L33.4472 41.2624C31.8318 41.8992 30.2323 42.4227 28.6737 42.8229ZM46.6742 43.4839C45.0364 46.5437 40.9129 48.7992 37.1552 49.5756C38.3533 47.321 38.6174 44.4509 38.1797 42.7105C38.0781 42.3062 37.8143 42.103 37.7996 42.0791C40.8287 40.612 43.6973 38.8519 46.3603 36.8273C47.6612 39.204 47.7683 41.4394 46.6742 43.4839ZM49.4924 30.7913C48.366 31.9175 47.1532 33.0056 45.8874 34.0253C42.8447 36.4753 39.4957 38.5505 35.9227 40.2025L24.1702 28.4503C25.8222 24.877 27.8975 21.528 30.3472 18.4857C31.3677 17.219 32.4557 16.006 33.5816 14.8803C37.2847 11.177 42.0639 8.22981 47.7904 6.10831L58.2644 16.5823C56.1431 22.3087 53.1959 27.0879 49.4924 30.7913ZM59.1638 13.9459L50.4268 5.20894C55.1869 3.73044 59.328 3.17682 61.395 2.97782C61.1959 5.04519 60.6421 9.1863 59.1638 13.9459Z" fill="url(#paint2_linear)"/>
<path d="M30.0463 52.0036C29.558 51.5155 28.7665 51.5157 28.2785 52.0038L24.7435 55.5401C24.2555 56.0283 24.2556 56.8198 24.7437 57.3078C25.2321 57.7958 26.0236 57.7958 26.5116 57.3076L30.0466 53.7714C30.5346 53.2831 30.5345 52.4916 30.0463 52.0036Z" fill="url(#paint3_linear)"/>
<path d="M12.3693 34.3263C11.8813 33.8381 11.0899 33.8381 10.6015 34.3261L7.06526 37.8611C6.57701 38.3491 6.57689 39.1406 7.06489 39.6288C7.55276 40.1168 8.34413 40.1173 8.83263 39.6291L12.3689 36.0941C12.8571 35.6061 12.8573 34.8146 12.3693 34.3263Z" fill="url(#paint4_linear)"/>
<path d="M21.2078 53.7725C20.72 53.2844 19.9283 53.2844 19.4401 53.7724L10.9726 62.2386C10.4844 62.7267 10.4844 63.5182 10.9725 64.0063C11.4604 64.4945 12.252 64.4947 12.7402 64.0065L21.2077 55.5402C21.696 55.0521 21.696 54.2606 21.2078 53.7725Z" fill="url(#paint5_linear)"/>
<path d="M11.2079 53.7725C10.7199 53.2844 9.92824 53.2844 9.44011 53.7724L0.972629 62.2386C0.48438 62.7267 0.48438 63.5182 0.972504 64.0063C1.46038 64.4945 2.252 64.4947 2.74025 64.0065L11.2077 55.5402C11.696 55.0521 11.696 54.2606 11.2079 53.7725Z" fill="url(#paint6_linear)"/>
<path d="M10.6002 43.1647C10.1122 42.6767 9.32062 42.6767 8.83249 43.1648L0.366261 51.6323C-0.121864 52.1205 -0.121864 52.9119 0.366386 53.4002C0.85451 53.8883 1.64601 53.8883 2.13413 53.4L10.6004 44.9326C11.0885 44.4443 11.0885 43.6529 10.6002 43.1647Z" fill="url(#paint7_linear)"/>
<path d="M38.8853 25.4874C38.3971 24.9993 37.6058 24.9993 37.1175 25.4874L35.35 27.2549C34.8618 27.743 34.8618 28.5345 35.35 29.0228C35.8382 29.5109 36.6296 29.5109 37.1178 29.0228L38.8853 27.2553C39.3734 26.7671 39.3734 25.9756 38.8853 25.4874Z" fill="url(#paint8_linear)"/>
<defs>
<linearGradient id="paint0_linear" x1="31.9999" y1="0.372559" x2="31.9999" y2="64.3725" gradientUnits="userSpaceOnUse">
<stop stop-color="#00D2D9"/>
<stop offset="1" stop-color="#A615FC"/>
</linearGradient>
<linearGradient id="paint1_linear" x1="31.9999" y1="0.372559" x2="31.9999" y2="64.3725" gradientUnits="userSpaceOnUse">
<stop stop-color="#00D2D9"/>
<stop offset="1" stop-color="#A615FC"/>
</linearGradient>
<linearGradient id="paint2_linear" x1="31.9999" y1="0.372559" x2="31.9999" y2="64.3725" gradientUnits="userSpaceOnUse">
<stop stop-color="#00D2D9"/>
<stop offset="1" stop-color="#A615FC"/>
</linearGradient>
<linearGradient id="paint3_linear" x1="31.9999" y1="0.372559" x2="31.9999" y2="64.3725" gradientUnits="userSpaceOnUse">
<stop stop-color="#00D2D9"/>
<stop offset="1" stop-color="#A615FC"/>
</linearGradient>
<linearGradient id="paint4_linear" x1="31.9999" y1="0.372559" x2="31.9999" y2="64.3725" gradientUnits="userSpaceOnUse">
<stop stop-color="#00D2D9"/>
<stop offset="1" stop-color="#A615FC"/>
</linearGradient>
<linearGradient id="paint5_linear" x1="31.9999" y1="0.372559" x2="31.9999" y2="64.3725" gradientUnits="userSpaceOnUse">
<stop stop-color="#00D2D9"/>
<stop offset="1" stop-color="#A615FC"/>
</linearGradient>
<linearGradient id="paint6_linear" x1="31.9999" y1="0.372559" x2="31.9999" y2="64.3725" gradientUnits="userSpaceOnUse">
<stop stop-color="#00D2D9"/>
<stop offset="1" stop-color="#A615FC"/>
</linearGradient>
<linearGradient id="paint7_linear" x1="31.9999" y1="0.372559" x2="31.9999" y2="64.3725" gradientUnits="userSpaceOnUse">
<stop stop-color="#00D2D9"/>
<stop offset="1" stop-color="#A615FC"/>
</linearGradient>
<linearGradient id="paint8_linear" x1="31.9999" y1="0.372559" x2="31.9999" y2="64.3725" gradientUnits="userSpaceOnUse">
<stop stop-color="#00D2D9"/>
<stop offset="1" stop-color="#A615FC"/>
</linearGradient>
</defs>
</svg>
