<svg width="64" height="58" viewBox="0 0 64 58" fill="none" xmlns="http://www.w3.org/2000/svg">
<path d="M62.9333 10.8667C63.5224 10.8667 64 10.3891 64 9.80001V5.53335C64 2.58803 61.612 0.200012 58.6667 0.200012H5.33333C2.38802 0.200012 0 2.58803 0 5.53335V39.6667C0 42.612 2.38802 45 5.33333 45H22.6135L18.6135 51.4H14.9333C11.988 51.4 9.6 53.788 9.6 56.7333C9.6 57.3224 10.0776 57.8 10.6667 57.8H53.3333C53.9224 57.8 54.4 57.3224 54.4 56.7333C54.4 53.788 52.012 51.4 49.0667 51.4H45.3865L41.3865 45H58.6667C61.612 45 64 42.612 64 39.6667V17.2667C64 16.6776 63.5224 16.2 62.9333 16.2C62.3443 16.2 61.8667 16.6776 61.8667 17.2667V34.3333H12.8C12.2109 34.3333 11.7333 34.8109 11.7333 35.4C11.7333 35.9891 12.2109 36.4667 12.8 36.4667H61.8667V39.6667C61.8667 41.4339 60.4339 42.8667 58.6667 42.8667H5.33333C3.56615 42.8667 2.13333 41.4339 2.13333 39.6667V36.4667H7.11458C7.70365 36.4667 8.18125 35.9891 8.18125 35.4C8.18125 34.8109 7.70365 34.3333 7.11458 34.3333H2.13333V5.53335C2.13333 3.76616 3.56615 2.33335 5.33333 2.33335H58.6667C60.4339 2.33335 61.8667 3.76616 61.8667 5.53335V9.80001C61.8667 10.3891 62.3443 10.8667 62.9333 10.8667ZM52.0854 55.6667H11.9146C12.3667 54.3875 13.5766 53.5328 14.9333 53.5333H49.0667C50.4234 53.5328 51.6333 54.3875 52.0854 55.6667ZM38.8802 45L42.8802 51.4H21.1198L25.1198 45H38.8802Z" fill="url(#paint0_linear)"/>
<path d="M55.4667 39.6667C55.4667 40.2557 54.9891 40.7333 54.4 40.7333C53.8109 40.7333 53.3333 40.2557 53.3333 39.6667C53.3333 39.0776 53.8109 38.6 54.4 38.6C54.9891 38.6 55.4667 39.0776 55.4667 39.6667Z" fill="url(#paint1_linear)"/>
<path d="M51.2 39.6667C51.2 40.2557 50.7224 40.7333 50.1333 40.7333C49.5443 40.7333 49.0667 40.2557 49.0667 39.6667C49.0667 39.0776 49.5443 38.6 50.1333 38.6C50.7224 38.6 51.2 39.0776 51.2 39.6667Z" fill="url(#paint2_linear)"/>
<path d="M20.2667 29C20.8557 29 21.3333 28.5224 21.3333 27.9333V26.1412C21.7057 25.9734 22.0625 25.7735 22.4 25.5438L23.9573 26.4401C24.4672 26.7297 25.1151 26.5531 25.4078 26.0453L27.5411 22.3547C27.6849 22.1099 27.7245 21.8182 27.6526 21.5443C27.5807 21.2703 27.4026 21.0359 27.1573 20.8932L25.6 19.9974C25.6 19.7948 25.6 19.6026 25.6 19.4C25.6 19.1974 25.6 19.0052 25.6 18.8026L27.1469 17.9068C27.3917 17.7641 27.5698 17.5297 27.6422 17.2557C27.7141 16.9818 27.6739 16.6901 27.5307 16.4453L25.3974 12.7547C25.1042 12.2469 24.4568 12.0703 23.9469 12.3599L22.4 13.2563C22.0625 13.0266 21.7057 12.8266 21.3333 12.6589V10.8667C21.3333 10.2776 20.8557 9.80001 20.2667 9.80001H16C15.4109 9.80001 14.9333 10.2776 14.9333 10.8667V12.6589C14.5609 12.8266 14.2042 13.0266 13.8667 13.2563L12.3094 12.3599C11.7995 12.0703 11.1516 12.2469 10.8588 12.7547L8.72551 16.4453C8.58176 16.6901 8.54218 16.9818 8.61406 17.2557C8.68593 17.5297 8.86406 17.7641 9.10937 17.9068L10.6562 18.8026V19.9974L9.10937 20.8932C8.86406 21.0359 8.68593 21.2703 8.61406 21.5443C8.54218 21.8182 8.58176 22.1099 8.72551 22.3547L10.8588 26.0453C11.1516 26.5531 11.7995 26.7297 12.3094 26.4401L13.8667 25.5438C14.2042 25.7735 14.5609 25.9734 14.9333 26.1412V27.9333C14.9333 28.5224 15.4109 29 16 29C16.5891 29 17.0667 28.5224 17.0667 27.9333V25.4266C17.0651 24.975 16.7786 24.5729 16.3521 24.424C15.7365 24.2047 15.1656 23.8755 14.6667 23.4531C14.324 23.1583 13.8323 23.111 13.4401 23.336L12.2026 24.0615L11.1359 22.2052L12.3734 21.5333C12.7682 21.3094 12.9776 20.8599 12.8958 20.4136C12.7682 19.7724 12.7682 19.113 12.8958 18.4719C13.0193 17.9979 12.8036 17.5005 12.3734 17.2667L11.1359 16.5521L12.2026 14.6958L13.4401 15.4214C13.8323 15.6464 14.324 15.5995 14.6667 15.3042C15.1656 14.8818 15.7365 14.5526 16.3521 14.3333C16.7786 14.1844 17.0651 13.7823 17.0667 13.3307V11.9333H19.2V13.3735C19.2016 13.825 19.488 14.2271 19.9146 14.3761C20.5302 14.5953 21.101 14.9245 21.6 15.3469C21.9427 15.6417 22.4344 15.6891 22.8266 15.4641L24.0641 14.7386L25.1307 16.5948L23.8932 17.2667C23.4984 17.4906 23.2891 17.9401 23.3708 18.3865C23.4984 19.0276 23.4984 19.687 23.3708 20.3281C23.2474 20.8021 23.463 21.2995 23.8932 21.5333L25.1307 22.2479L24.0641 24.1042L22.8266 23.3787C22.4344 23.1537 21.9427 23.2005 21.6 23.4958C21.101 23.9182 20.5302 24.2474 19.9146 24.4667C19.488 24.6156 19.2016 25.0177 19.2 25.4693V27.9333C19.2 28.5224 19.6776 29 20.2667 29Z" fill="url(#paint3_linear)"/>
<path d="M21.3333 19.4C21.3333 17.6328 19.9005 16.2 18.1333 16.2C16.3661 16.2 14.9333 17.6328 14.9333 19.4C14.9333 21.1672 16.3661 22.6 18.1333 22.6C19.9005 22.6 21.3333 21.1672 21.3333 19.4ZM18.1333 20.4667C17.5443 20.4667 17.0667 19.9891 17.0667 19.4C17.0667 18.811 17.5443 18.3333 18.1333 18.3333C18.7224 18.3333 19.2 18.811 19.2 19.4C19.2 19.9891 18.7224 20.4667 18.1333 20.4667Z" fill="url(#paint4_linear)"/>
<path d="M41.6 19.4C41.6 21.7563 43.5104 23.6667 45.8667 23.6667C48.2229 23.6667 50.1333 21.7563 50.1333 19.4C50.1333 17.0438 48.2229 15.1333 45.8667 15.1333C43.5104 15.1333 41.6 17.0438 41.6 19.4ZM48 19.4C48 20.5781 47.0448 21.5333 45.8667 21.5333C44.6885 21.5333 43.7333 20.5781 43.7333 19.4C43.7333 18.2219 44.6885 17.2667 45.8667 17.2667C47.0448 17.2667 48 18.2219 48 19.4Z" fill="url(#paint5_linear)"/>
<path d="M58.5495 15.7735L55.3495 10.2266C55.2141 9.9771 54.9849 9.7922 54.7125 9.71199C54.4406 9.63178 54.1474 9.66355 53.8984 9.80001L51.2 11.4104C50.8568 11.187 50.5005 10.9839 50.1333 10.8026V7.66668C50.1333 7.07762 49.6557 6.60001 49.0667 6.60001H42.6667C42.0776 6.60001 41.6 7.07762 41.6 7.66668V10.8026C41.2328 10.9839 40.8766 11.187 40.5333 11.4104L37.8349 9.80001C37.3276 9.50887 36.6807 9.68022 36.3839 10.1839L33.1839 15.7307C33.0156 15.9813 32.9615 16.2912 33.0349 16.5839C33.1078 16.8766 33.3016 17.125 33.5682 17.2667L36.2667 18.8026V19.9974L33.5682 21.5333C33.0641 21.8297 32.8927 22.4771 33.1839 22.9839L36.3839 28.5307C36.6807 29.0349 37.3276 29.2057 37.8349 28.9146L40.5333 27.3896C40.8766 27.613 41.2328 27.8162 41.6 27.9974V31.1333C41.6 31.7224 42.0776 32.2 42.6667 32.2H49.0667C49.6557 32.2 50.1333 31.7224 50.1333 31.1333V27.9974C50.5005 27.8162 50.8568 27.613 51.2 27.3896L53.8984 29C54.4057 29.2912 55.0526 29.1198 55.3495 28.6162C55.4927 28.3714 55.5328 28.0797 55.4609 27.8057C55.3885 27.5313 55.2104 27.2974 54.9651 27.1547L51.6479 25.2453C51.2719 25.0235 50.799 25.0531 50.4531 25.3198C49.9109 25.7604 49.3073 26.1198 48.6615 26.3865C48.263 26.5505 48.0021 26.9375 48 27.3682V30.0667H43.7333V27.3042C43.7313 26.8735 43.4703 26.4865 43.0719 26.3229C42.426 26.0557 41.8224 25.6964 41.2802 25.2563C40.9344 24.9891 40.4615 24.9594 40.0854 25.1813L37.6958 26.5573L35.5625 22.8667L37.9521 21.5333C38.3307 21.3198 38.5417 20.8979 38.4854 20.4667C38.3714 19.7818 38.3714 19.0823 38.4854 18.3974C38.5417 17.9662 38.3307 17.5443 37.9521 17.3307L35.5625 15.9438L37.6958 12.2531L40.0854 13.6292C40.4615 13.8511 40.9344 13.8219 41.2802 13.5547C41.8224 13.1141 42.426 12.7552 43.0719 12.488C43.4703 12.3245 43.7313 11.9375 43.7333 11.5068V8.73335H48V11.4958C48.0021 11.9266 48.263 12.3136 48.6615 12.4771C49.3073 12.7443 49.9109 13.1037 50.4531 13.5438C50.799 13.811 51.2719 13.8406 51.6479 13.6188L54.0375 12.2427L56.1708 15.9333L53.7812 17.2667C53.4026 17.4802 53.1917 17.9021 53.2479 18.3333C53.362 19.0182 53.362 19.7177 53.2479 20.4026C53.1917 20.8339 53.4026 21.2557 53.7812 21.4693L57.0984 23.3896C57.6052 23.6542 58.2307 23.4729 58.5167 22.9781C58.8026 22.4833 58.6479 21.8505 58.1651 21.5438L55.4667 19.9974C55.4667 19.7948 55.4667 19.5922 55.4667 19.4C55.4667 19.2078 55.4667 19.0052 55.4667 18.8026L58.1651 17.2667C58.4193 17.124 58.6042 16.8839 58.6766 16.6021C58.749 16.3198 58.7031 16.0208 58.5495 15.7735Z" fill="url(#paint6_linear)"/>
<path d="M24.5333 8.56253C24.7291 8.56149 24.9213 8.50576 25.088 8.40263C28.0224 6.58284 31.5984 6.11617 34.9015 7.12294C35.1786 7.21513 35.4818 7.19013 35.7396 7.05315C35.9979 6.91565 36.188 6.67867 36.2666 6.39742C36.4318 5.8318 36.1068 5.23961 35.5411 5.07451C31.6474 3.89378 27.4333 4.44951 23.9786 6.60003C23.7359 6.74794 23.5625 6.98649 23.4963 7.26253C23.4302 7.53909 23.4771 7.83024 23.6265 8.0719C23.8245 8.38023 24.1666 8.56565 24.5333 8.56253Z" fill="url(#paint7_linear)"/>
<path d="M23.9786 30.0666C26.2255 31.4468 28.8083 32.1849 31.4453 32.2C32.4177 32.1968 33.3864 32.0895 34.3359 31.8802C34.7317 31.8244 35.063 31.5526 35.1947 31.175C35.3265 30.7979 35.2364 30.3786 34.9609 30.089C34.6854 29.7989 34.2713 29.6875 33.888 29.8C33.0927 29.9744 32.2807 30.064 31.4666 30.0666C29.2078 30.0698 26.9921 29.4458 25.0666 28.264C24.5656 27.9599 23.913 28.1171 23.6052 28.6161C23.3119 29.1203 23.4786 29.7666 23.9786 30.0666Z" fill="url(#paint8_linear)"/>
<defs>
<linearGradient id="paint0_linear" x1="32" y1="0.200012" x2="32" y2="57.8" gradientUnits="userSpaceOnUse">
<stop stop-color="#00D2D9"/>
<stop offset="1" stop-color="#A615FC"/>
</linearGradient>
<linearGradient id="paint1_linear" x1="32" y1="0.200012" x2="32" y2="57.8" gradientUnits="userSpaceOnUse">
<stop stop-color="#00D2D9"/>
<stop offset="1" stop-color="#A615FC"/>
</linearGradient>
<linearGradient id="paint2_linear" x1="32" y1="0.200012" x2="32" y2="57.8" gradientUnits="userSpaceOnUse">
<stop stop-color="#00D2D9"/>
<stop offset="1" stop-color="#A615FC"/>
</linearGradient>
<linearGradient id="paint3_linear" x1="32" y1="0.200012" x2="32" y2="57.8" gradientUnits="userSpaceOnUse">
<stop stop-color="#00D2D9"/>
<stop offset="1" stop-color="#A615FC"/>
</linearGradient>
<linearGradient id="paint4_linear" x1="32" y1="0.200012" x2="32" y2="57.8" gradientUnits="userSpaceOnUse">
<stop stop-color="#00D2D9"/>
<stop offset="1" stop-color="#A615FC"/>
</linearGradient>
<linearGradient id="paint5_linear" x1="32" y1="0.200012" x2="32" y2="57.8" gradientUnits="userSpaceOnUse">
<stop stop-color="#00D2D9"/>
<stop offset="1" stop-color="#A615FC"/>
</linearGradient>
<linearGradient id="paint6_linear" x1="32" y1="0.200012" x2="32" y2="57.8" gradientUnits="userSpaceOnUse">
<stop stop-color="#00D2D9"/>
<stop offset="1" stop-color="#A615FC"/>
</linearGradient>
<linearGradient id="paint7_linear" x1="32" y1="0.200012" x2="32" y2="57.8" gradientUnits="userSpaceOnUse">
<stop stop-color="#00D2D9"/>
<stop offset="1" stop-color="#A615FC"/>
</linearGradient>
<linearGradient id="paint8_linear" x1="32" y1="0.200012" x2="32" y2="57.8" gradientUnits="userSpaceOnUse">
<stop stop-color="#00D2D9"/>
<stop offset="1" stop-color="#A615FC"/>
</linearGradient>
</defs>
</svg>
