<svg width="64" height="65" viewBox="0 0 64 65" fill="none" xmlns="http://www.w3.org/2000/svg">
<path d="M20.2667 39.1817C20.2667 35.6474 17.401 32.7817 13.8667 32.7817C10.3323 32.7817 7.46667 35.6474 7.46667 39.1817C7.46667 42.7161 10.3323 45.5817 13.8667 45.5817C17.4 45.5781 20.263 42.7151 20.2667 39.1817ZM9.6 39.1817C9.6 36.8255 11.5104 34.9151 13.8667 34.9151C16.2229 34.9151 18.1333 36.8255 18.1333 39.1817C18.1333 41.538 16.2229 43.4484 13.8667 43.4484C11.5104 43.4484 9.6 41.538 9.6 39.1817Z" fill="url(#paint0_linear)"/>
<path d="M52.2667 39.1817C52.2667 35.6474 49.401 32.7817 45.8667 32.7817C42.3323 32.7817 39.4667 35.6474 39.4667 39.1817C39.4667 42.7161 42.3323 45.5817 45.8667 45.5817C49.4 45.5781 52.263 42.7151 52.2667 39.1817ZM41.6 39.1817C41.6 36.8255 43.5104 34.9151 45.8667 34.9151C48.2229 34.9151 50.1333 36.8255 50.1333 39.1817C50.1333 41.538 48.2229 43.4484 45.8667 43.4484C43.5104 43.4484 41.6 41.538 41.6 39.1817Z" fill="url(#paint1_linear)"/>
<path d="M13.8667 47.7151C6.21198 47.7239 0.00885416 53.9271 0 61.5817V63.7151C0 64.3041 0.477604 64.7817 1.06667 64.7817H26.6667C27.2557 64.7817 27.7333 64.3041 27.7333 63.7151V61.5817C27.7245 53.9271 21.5214 47.7239 13.8667 47.7151ZM25.6 62.6484H2.13333V61.5817C2.13333 55.1015 7.38646 49.8484 13.8667 49.8484C20.3469 49.8484 25.6 55.1015 25.6 61.5817V62.6484Z" fill="url(#paint2_linear)"/>
<path d="M45.8667 47.7151C38.212 47.7239 32.0089 53.9271 32 61.5817V63.7151C32 64.3041 32.4776 64.7817 33.0667 64.7817H58.6667C59.2557 64.7817 59.7333 64.3041 59.7333 63.7151V61.5817C59.7245 53.9271 53.5214 47.7239 45.8667 47.7151ZM57.6 62.6484H34.1333V61.5817C34.1333 55.1015 39.3865 49.8484 45.8667 49.8484C52.3469 49.8484 57.6 55.1015 57.6 61.5817V62.6484Z" fill="url(#paint3_linear)"/>
<path d="M62.9333 7.18174H36.2667V1.8484C36.2667 1.25934 35.7891 0.781738 35.2 0.781738H1.06667C0.477604 0.781738 0 1.25934 0 1.8484V18.9151C0 19.5041 0.477604 19.9817 1.06667 19.9817H5.33333V29.5817C5.33333 30.0614 5.65313 30.4817 6.1151 30.6099C6.20781 30.6354 6.30365 30.6484 6.4 30.6484C6.77448 30.6484 7.12135 30.452 7.31406 30.1312L13.4036 19.9817H27.7333V25.3151C27.7333 25.9041 28.2109 26.3817 28.8 26.3817H51.663L57.7526 36.5312C57.9453 36.8521 58.2922 37.0484 58.6667 37.0484C58.763 37.0484 58.8589 37.0354 58.9516 37.0099C59.4135 36.8817 59.7333 36.4614 59.7333 35.9817V26.3817H62.9333C63.5224 26.3817 64 25.9041 64 25.3151V8.2484C64 7.65934 63.5224 7.18174 62.9333 7.18174ZM12.8 17.8484C12.4255 17.8484 12.0786 18.0448 11.8859 18.3656L7.46667 25.7312V18.9151C7.46667 18.326 6.98906 17.8484 6.4 17.8484H2.13333V2.91507H34.1333V17.8484H12.8ZM61.8667 24.2484H58.6667C58.0776 24.2484 57.6 24.726 57.6 25.3151V32.1312L53.1807 24.7656C52.988 24.4448 52.6411 24.2484 52.2667 24.2484H29.8667V19.9817H35.2C35.7891 19.9817 36.2667 19.5041 36.2667 18.9151V9.31507H61.8667V24.2484Z" fill="url(#paint4_linear)"/>
<defs>
<linearGradient id="paint0_linear" x1="32" y1="66.3135" x2="32" y2="-5.9468" gradientUnits="userSpaceOnUse">
<stop stop-color="#A615FC"/>
<stop offset="1" stop-color="#00D2D9"/>
</linearGradient>
<linearGradient id="paint1_linear" x1="32" y1="66.3135" x2="32" y2="-5.9468" gradientUnits="userSpaceOnUse">
<stop stop-color="#A615FC"/>
<stop offset="1" stop-color="#00D2D9"/>
</linearGradient>
<linearGradient id="paint2_linear" x1="32" y1="66.3135" x2="32" y2="-5.9468" gradientUnits="userSpaceOnUse">
<stop stop-color="#A615FC"/>
<stop offset="1" stop-color="#00D2D9"/>
</linearGradient>
<linearGradient id="paint3_linear" x1="32" y1="66.3135" x2="32" y2="-5.9468" gradientUnits="userSpaceOnUse">
<stop stop-color="#A615FC"/>
<stop offset="1" stop-color="#00D2D9"/>
</linearGradient>
<linearGradient id="paint4_linear" x1="32" y1="66.3135" x2="32" y2="-5.9468" gradientUnits="userSpaceOnUse">
<stop stop-color="#A615FC"/>
<stop offset="1" stop-color="#00D2D9"/>
</linearGradient>
</defs>
</svg>
