<svg width="60" height="59" viewBox="0 0 60 59" fill="none" xmlns="http://www.w3.org/2000/svg">
<path d="M59.1321 46.756H53.8882C53.8882 46.6083 53.8495 46.4631 53.7768 46.3347C51.6815 42.6777 53.4049 38.996 53.7768 38.3016L53.8015 38.2643C53.8252 38.2222 53.8422 38.1762 53.8509 38.1282H56.0823C56.3104 38.1307 56.5293 38.0416 56.69 37.8803C56.8552 37.7161 56.9486 37.4934 56.9501 37.2605V36.7767C56.9501 36.6251 56.9118 36.476 56.8387 36.3428C54.7439 32.6858 56.4668 29.0041 56.8387 28.3102L56.8634 28.2729C56.923 28.1533 56.9525 28.0216 56.9501 27.8884V27.3678C56.9515 27.1373 56.861 26.9155 56.6978 26.7528C56.5346 26.5896 56.3133 26.4986 56.0823 26.5001H44.8759C45.0396 25.4003 45.1224 24.2895 45.1239 23.1777C45.1239 10.7316 35.008 0.615723 22.5619 0.615723C10.1159 0.615723 0 10.7316 0 23.1777C0 35.6242 10.1159 45.7396 22.5619 45.7396C23.8413 45.7377 25.1183 45.6297 26.3802 45.4176C26.4175 45.5289 26.4543 45.6282 26.4916 45.7396C27.0993 47.2892 28.339 48.1197 30.0745 48.1197H33.1611C32.9291 48.4315 32.7412 48.7734 32.6032 49.1366C32.1446 50.3143 32.1446 51.6779 32.1446 52.5704C32.1446 53.4628 32.1446 54.839 32.6032 56.0041C33.2105 57.5537 34.4501 58.3842 36.1857 58.3842H59.1321C59.3626 58.3857 59.5844 58.2946 59.7471 58.1319C59.9103 57.9687 60.0013 57.7469 59.9998 57.5164V57.0332C59.9998 56.8811 59.9611 56.732 59.8885 56.5993C57.7931 52.9423 59.5166 49.2605 59.8885 48.5661L59.9132 48.5288C59.9722 48.4097 60.0023 48.278 59.9998 48.1448V47.6238C60.0013 47.3933 59.9103 47.172 59.7471 47.0088C59.5844 46.8456 59.3626 46.7546 59.1321 46.756ZM54.9046 36.3927L39.6819 36.3801V33.3928C39.6834 33.1618 39.5923 32.9405 39.4291 32.7773C39.2659 32.6141 39.0446 32.5236 38.8141 32.525H35.2559C35.0254 32.5236 34.8041 32.6141 34.6409 32.7773C34.4777 32.9405 34.3867 33.1618 34.3881 33.3928V36.4048H33.1238C31.2023 36.4048 30.8183 34.9051 30.8183 32.3265C30.8183 29.7479 31.1902 28.2482 33.1238 28.2482H54.9545C54.3347 29.7358 53.3676 32.9957 54.9046 36.3927ZM37.9464 34.248V41.686C37.3847 41.3514 36.6854 41.3514 36.1237 41.686V34.248H37.9464ZM6.49566 36.4174C3.60375 32.9241 1.93988 28.577 1.76023 24.0454H9.33478C9.38805 27.086 9.90619 30.0999 10.8718 32.9836C9.27183 33.9352 7.8007 35.0891 6.49566 36.4174ZM10.8597 13.3722C9.92992 16.0995 9.40887 19.0993 9.32219 22.3099H1.76023C1.94569 17.7798 3.60908 13.4342 6.49566 9.93792C7.79876 11.2628 9.26505 12.4168 10.8597 13.3722ZM38.5783 9.88853C41.5002 13.3877 43.1825 17.7551 43.3636 22.3099H35.7891C35.7024 19.0868 35.1818 16.0622 34.2395 13.3223C35.8254 12.3659 37.2834 11.2125 38.5783 9.88853ZM33.1238 26.5001C31.3883 26.5001 30.1486 27.3184 29.5413 28.8801C29.3196 29.4777 29.1859 30.1038 29.1447 30.7396C27.2882 30.1784 25.3676 29.8578 23.4297 29.7852V24.0454H34.0661C34.0414 24.8759 33.9916 25.6943 33.9049 26.5001H33.1238ZM34.0661 22.3099H23.4297V16.5701C26.6567 16.4476 29.8188 15.6317 32.7025 14.178C33.5509 16.8074 34.0104 19.5473 34.0661 22.3099ZM23.4297 14.8346V2.62389C27.3221 4.70662 30.2972 8.16558 32.0948 12.5538C29.4067 13.9349 26.4494 14.7135 23.4297 14.8346ZM21.6942 14.8346C18.6691 14.7145 15.7055 13.945 13.0039 12.5785C14.8014 8.17769 17.7892 4.70662 21.6942 2.62389V14.8346ZM21.6942 16.5827V22.3099H11.0577C11.1154 19.5604 11.5705 16.8341 12.4093 14.2148C15.3002 15.6569 18.4657 16.4641 21.6942 16.5827ZM11.0577 24.0454H21.6942V29.7726C18.4676 29.8932 15.3031 30.696 12.4093 32.128C11.5696 29.5135 11.1144 26.7911 11.0577 24.0454ZM21.6942 31.5207V43.744C17.7892 41.6613 14.8014 38.1776 13.0039 33.7768C15.7055 32.4103 18.6691 31.6408 21.6942 31.5207ZM26.4916 38.8594C26.0824 39.9258 26.0456 41.1407 26.033 42.0332C25.2156 42.6729 24.3449 43.2414 23.4297 43.7314V31.5081C25.3521 31.5827 27.2547 31.9246 29.0828 32.525C29.0828 33.4175 29.1196 34.6572 29.5413 35.7356C29.6348 35.9937 29.7597 36.2392 29.9132 36.4668C28.2518 36.5414 27.0741 37.3471 26.4916 38.8594ZM35.6404 26.5001C35.7271 25.6943 35.777 24.8759 35.7891 24.0454H43.3636C43.3302 24.8677 43.2474 25.6875 43.1157 26.5001H35.6404ZM37.4132 8.59947C36.2757 9.77134 35.0022 10.8038 33.6197 11.6735C32.0948 8.06631 29.8266 5.04124 26.9255 2.80984C30.9142 3.66792 34.5615 5.68141 37.4132 8.59947ZM18.1984 2.80984C15.2852 5.04124 13.0039 8.09101 11.4795 11.7107C10.0825 10.8454 8.79582 9.81299 7.64864 8.63627C10.5192 5.70368 14.1874 3.67809 18.1984 2.80984ZM7.66123 37.7065C8.8118 36.5336 10.0975 35.5017 11.4916 34.6325C13.0165 38.2643 15.2852 41.3015 18.2105 43.5329C14.1937 42.6811 10.5212 40.6526 7.66123 37.7065ZM27.7685 42.2932C27.7685 39.7151 28.1404 38.2149 30.0745 38.2149H34.4007V43.3721C34.4032 43.6971 34.5857 43.9934 34.8748 44.1421C35.1639 44.2903 35.5116 44.266 35.777 44.0786L36.9914 43.2109L37.004 43.1983C37.0152 43.1867 37.0312 43.1799 37.0476 43.1799C37.0636 43.1799 37.0796 43.1867 37.0907 43.1983L37.1033 43.2109L38.3183 44.0786C38.465 44.1866 38.6437 44.2433 38.8263 44.2399C38.9643 44.2375 39.1003 44.2036 39.2228 44.1406C39.5105 43.9915 39.6916 43.6956 39.694 43.3721V38.2149H51.9173C51.2849 39.7151 50.3305 42.975 51.8674 46.372H30.0745C28.1404 46.3841 27.7685 44.8844 27.7685 42.2932ZM57.9544 56.6487H36.1736C34.2521 56.6487 33.8676 55.149 33.8676 52.5704C33.8676 49.9917 34.2395 48.4916 36.1736 48.4916H58.0164C57.384 49.9918 56.4174 53.2522 57.9544 56.6487Z" fill="url(#paint0_linear)"/>
<defs>
<linearGradient id="paint0_linear" x1="29.9999" y1="0.13777" x2="29.9999" y2="60.8983" gradientUnits="userSpaceOnUse">
<stop stop-color="#00D2D9"/>
<stop offset="1" stop-color="#A615FC"/>
</linearGradient>
</defs>
</svg>
